<svg width="40" height="40" viewBox="0 0 40 40" fill="none" xmlns="http://www.w3.org/2000/svg">
<path d="M7.84265 0.00976562C3.53397 0.00976562 0.00756836 3.53609 0.00756836 7.84485V32.1585C0.00756836 36.4672 3.53389 39.9923 7.84265 39.9923H32.1563C36.465 39.9923 39.9901 36.4672 39.9901 32.1585V7.84485C39.9901 3.53617 36.465 0.00976562 32.1563 0.00976562H7.84265ZM9.81329 6.60769C11.8792 6.60769 13.1517 7.96393 13.191 9.74669C13.191 11.4901 11.8791 12.8844 9.77333 12.8844H9.73457C7.70797 12.8844 6.39809 11.4902 6.39809 9.74669C6.39809 7.96397 7.74761 6.60769 9.81325 6.60769H9.81329ZM27.6165 14.9401C31.5896 14.9401 34.5681 17.537 34.5681 23.1175V33.5355H28.53V23.816C28.53 21.3736 27.6561 19.7073 25.4709 19.7073C23.8028 19.7073 22.8084 20.8304 22.3719 21.9154C22.2124 22.3035 22.1732 22.8456 22.1732 23.3886V33.5355H16.1351C16.1351 33.5355 16.2143 17.071 16.1351 15.3662H22.1744V17.9391C22.9769 16.7011 24.4121 14.94 27.6165 14.94V14.9401ZM6.75425 15.3675H12.7924V33.5356H6.75425V15.3675Z" fill="#767676"/>
</svg>
