<svg width="165" height="50" viewBox="0 0 165 50" fill="none" xmlns="http://www.w3.org/2000/svg">
<path d="M49.7805 24.8902C49.7805 38.6367 38.6367 49.7805 24.8902 49.7805C11.1437 49.7805 6.51139e-06 38.6367 6.51139e-06 24.8902C6.51139e-06 11.1438 11.1437 1.21657e-05 24.8902 1.21657e-05C38.6367 1.21657e-05 49.7805 11.1438 49.7805 24.8902ZM14.9342 24.8902C14.9342 30.3888 19.3916 34.8463 24.8902 34.8463C30.3888 34.8463 34.8463 30.3888 34.8463 24.8902C34.8463 19.3916 30.3888 14.9342 24.8902 14.9342C19.3916 14.9342 14.9342 19.3916 14.9342 24.8902Z" fill="#5AD668"/>
<path d="M3.04286 36.8157C0.836411 32.7735 -0.205337 28.1984 0.033504 23.5994C0.272345 19.0004 1.78241 14.5578 4.39571 10.7659C7.009 6.97398 10.6231 3.98142 14.8358 2.12115C19.0485 0.260871 23.6948 -0.394186 28.2577 0.228853C32.8205 0.851891 37.1211 2.7286 40.6809 5.65018C44.2407 8.57176 46.9201 12.4237 48.4212 16.7774C49.9222 21.1311 50.186 25.8158 49.1831 30.3105C48.1803 34.8052 45.9501 38.9335 42.7408 42.2362L32.0304 31.8286C33.3142 30.5076 34.2063 28.8562 34.6074 27.0584C35.0085 25.2605 34.903 23.3866 34.3026 21.6451C33.7022 19.9036 32.6304 18.3629 31.2065 17.1942C29.7826 16.0256 28.0624 15.2749 26.2372 15.0257C24.4121 14.7765 22.5536 15.0385 20.8685 15.7826C19.1834 16.5267 17.7377 17.7237 16.6924 19.2405C15.6471 20.7573 15.0431 22.5343 14.9475 24.3739C14.852 26.2135 15.2687 28.0435 16.1513 29.6604L3.04286 36.8157Z" fill="#388058"/>
<path d="M48.8776 18.2471C49.9561 22.1413 50.0702 26.2395 49.2102 30.1877C48.3502 34.1358 46.5419 37.8153 43.9415 40.9081C41.3412 44.001 38.0269 46.4142 34.285 47.9394C30.5432 49.4645 26.4862 50.0558 22.4647 49.662L23.92 34.799C25.5286 34.9565 27.1514 34.72 28.6482 34.1099C30.1449 33.4998 31.4706 32.5345 32.5108 31.2974C33.5509 30.0603 34.2742 28.5885 34.6182 27.0092C34.9622 25.4299 34.9166 23.7907 34.4852 22.233L48.8776 18.2471Z" fill="#9CE6A4"/>
<path d="M68.1953 42.2065C66.3687 42.2065 64.7438 41.8242 63.3208 41.0596C61.919 40.295 60.8039 39.2542 59.9755 37.9374C59.1684 36.5993 58.7649 35.0806 58.7649 33.3814C58.7649 31.661 59.1684 30.1424 59.9755 28.8255C60.8039 27.4874 61.919 26.4467 63.3208 25.7033C64.7438 24.9387 66.3687 24.5564 68.1953 24.5564C70.0007 24.5564 71.6149 24.9387 73.0379 25.7033C74.461 26.4467 75.5761 27.4768 76.3832 28.7937C77.1903 30.1105 77.5938 31.6398 77.5938 33.3814C77.5938 35.0806 77.1903 36.5993 76.3832 37.9374C75.5761 39.2542 74.461 40.295 73.0379 41.0596C71.6149 41.8242 70.0007 42.2065 68.1953 42.2065ZM68.1953 38.1285C69.0236 38.1285 69.767 37.9374 70.4255 37.555C71.0839 37.1727 71.6043 36.6311 71.9866 35.9302C72.3689 35.2081 72.56 34.3585 72.56 33.3814C72.56 32.3832 72.3689 31.5336 71.9866 30.8327C71.6043 30.1318 71.0839 29.5902 70.4255 29.2079C69.767 28.8255 69.0236 28.6344 68.1953 28.6344C67.3669 28.6344 66.6235 28.8255 65.9651 29.2079C65.3067 29.5902 64.7757 30.1318 64.3721 30.8327C63.9898 31.5336 63.7987 32.3832 63.7987 33.3814C63.7987 34.3585 63.9898 35.2081 64.3721 35.9302C64.7757 36.6311 65.3067 37.1727 65.9651 37.555C66.6235 37.9374 67.3669 38.1285 68.1953 38.1285ZM91.0473 42.2065C89.5393 42.2065 88.2436 41.8879 87.1604 41.2508C86.0772 40.6136 85.2488 39.6472 84.6754 38.3515C84.1019 37.0347 83.8152 35.378 83.8152 33.3814C83.8152 31.3637 84.1125 29.707 84.7072 28.4114C85.3232 27.1157 86.1728 26.1493 87.256 25.5121C88.3392 24.875 89.603 24.5564 91.0473 24.5564C92.6615 24.5564 94.1058 24.9174 95.3802 25.6396C96.6758 26.3617 97.6953 27.3812 98.4387 28.6981C99.2033 30.015 99.5856 31.5761 99.5856 33.3814C99.5856 35.1656 99.2033 36.7161 98.4387 38.0329C97.6953 39.3498 96.6758 40.3799 95.3802 41.1233C94.1058 41.8455 92.6615 42.2065 91.0473 42.2065ZM80.9159 41.9517V18.3119H85.886V28.2839L85.5674 33.3496L85.663 38.4471V41.9517H80.9159ZM90.1871 38.1285C91.0154 38.1285 91.7482 37.9374 92.3854 37.555C93.0438 37.1727 93.5642 36.6311 93.9465 35.9302C94.35 35.2081 94.5518 34.3585 94.5518 33.3814C94.5518 32.3832 94.35 31.5336 93.9465 30.8327C93.5642 30.1318 93.0438 29.5902 92.3854 29.2079C91.7482 28.8255 91.0154 28.6344 90.1871 28.6344C89.3587 28.6344 88.6153 28.8255 87.9569 29.2079C87.2985 29.5902 86.7781 30.1318 86.3958 30.8327C86.0135 31.5336 85.8223 32.3832 85.8223 33.3814C85.8223 34.3585 86.0135 35.2081 86.3958 35.9302C86.7781 36.6311 87.2985 37.1727 87.9569 37.555C88.6153 37.9374 89.3587 38.1285 90.1871 38.1285ZM111.069 42.2065C109.242 42.2065 107.617 41.8242 106.194 41.0596C104.792 40.295 103.677 39.2542 102.849 37.9374C102.042 36.5993 101.638 35.0806 101.638 33.3814C101.638 31.661 102.042 30.1424 102.849 28.8255C103.677 27.4874 104.792 26.4467 106.194 25.7033C107.617 24.9387 109.242 24.5564 111.069 24.5564C112.874 24.5564 114.488 24.9387 115.911 25.7033C117.334 26.4467 118.45 27.4768 119.257 28.7937C120.064 30.1105 120.467 31.6398 120.467 33.3814C120.467 35.0806 120.064 36.5993 119.257 37.9374C118.45 39.2542 117.334 40.295 115.911 41.0596C114.488 41.8242 112.874 42.2065 111.069 42.2065ZM111.069 38.1285C111.897 38.1285 112.64 37.9374 113.299 37.555C113.957 37.1727 114.478 36.6311 114.86 35.9302C115.242 35.2081 115.433 34.3585 115.433 33.3814C115.433 32.3832 115.242 31.5336 114.86 30.8327C114.478 30.1318 113.957 29.5902 113.299 29.2079C112.64 28.8255 111.897 28.6344 111.069 28.6344C110.24 28.6344 109.497 28.8255 108.839 29.2079C108.18 29.5902 107.649 30.1318 107.246 30.8327C106.863 31.5336 106.672 32.3832 106.672 33.3814C106.672 34.3585 106.863 35.2081 107.246 35.9302C107.649 36.6311 108.18 37.1727 108.839 37.555C109.497 37.9374 110.24 38.1285 111.069 38.1285ZM131.149 42.2065C129.535 42.2065 128.08 41.8455 126.784 41.1233C125.489 40.3799 124.458 39.3498 123.694 38.0329C122.95 36.7161 122.579 35.1656 122.579 33.3814C122.579 31.5761 122.95 30.015 123.694 28.6981C124.458 27.3812 125.489 26.3617 126.784 25.6396C128.08 24.9174 129.535 24.5564 131.149 24.5564C132.593 24.5564 133.857 24.875 134.94 25.5121C136.023 26.1493 136.862 27.1157 137.457 28.4114C138.052 29.707 138.349 31.3637 138.349 33.3814C138.349 35.378 138.062 37.0347 137.489 38.3515C136.916 39.6472 136.087 40.6136 135.004 41.2508C133.942 41.8879 132.657 42.2065 131.149 42.2065ZM132.009 38.1285C132.816 38.1285 133.549 37.9374 134.207 37.555C134.866 37.1727 135.386 36.6311 135.769 35.9302C136.172 35.2081 136.374 34.3585 136.374 33.3814C136.374 32.3832 136.172 31.5336 135.769 30.8327C135.386 30.1318 134.866 29.5902 134.207 29.2079C133.549 28.8255 132.816 28.6344 132.009 28.6344C131.181 28.6344 130.437 28.8255 129.779 29.2079C129.121 29.5902 128.59 30.1318 128.186 30.8327C127.804 31.5336 127.613 32.3832 127.613 33.3814C127.613 34.3585 127.804 35.2081 128.186 35.9302C128.59 36.6311 129.121 37.1727 129.779 37.555C130.437 37.9374 131.181 38.1285 132.009 38.1285ZM136.501 41.9517V38.4471L136.597 33.3496L136.278 28.2839V18.3119H141.248V41.9517H136.501ZM154.004 42.2065C152.178 42.2065 150.553 41.8242 149.13 41.0596C147.728 40.295 146.613 39.2542 145.785 37.9374C144.978 36.5993 144.574 35.0806 144.574 33.3814C144.574 31.661 144.978 30.1424 145.785 28.8255C146.613 27.4874 147.728 26.4467 149.13 25.7033C150.553 24.9387 152.178 24.5564 154.004 24.5564C155.81 24.5564 157.424 24.9387 158.847 25.7033C160.27 26.4467 161.385 27.4768 162.192 28.7937C162.999 30.1105 163.403 31.6398 163.403 33.3814C163.403 35.0806 162.999 36.5993 162.192 37.9374C161.385 39.2542 160.27 40.295 158.847 41.0596C157.424 41.8242 155.81 42.2065 154.004 42.2065ZM154.004 38.1285C154.833 38.1285 155.576 37.9374 156.235 37.555C156.893 37.1727 157.413 36.6311 157.796 35.9302C158.178 35.2081 158.369 34.3585 158.369 33.3814C158.369 32.3832 158.178 31.5336 157.796 30.8327C157.413 30.1318 156.893 29.5902 156.235 29.2079C155.576 28.8255 154.833 28.6344 154.004 28.6344C153.176 28.6344 152.433 28.8255 151.774 29.2079C151.116 29.5902 150.585 30.1318 150.181 30.8327C149.799 31.5336 149.608 32.3832 149.608 33.3814C149.608 34.3585 149.799 35.2081 150.181 35.9302C150.585 36.6311 151.116 37.1727 151.774 37.555C152.433 37.9374 153.176 38.1285 154.004 38.1285Z" fill="#388058"/>
</svg>
