<svg width="40" height="40" viewBox="0 0 40 40" fill="none" xmlns="http://www.w3.org/2000/svg">
<path d="M40 9.1C39.9775 8.23714 39.9108 7.37601 39.8 6.52C39.6507 5.77025 39.4018 5.04382 39.06 4.36C38.7025 3.61821 38.2225 2.94205 37.64 2.36C37.0522 1.78441 36.3772 1.30518 35.64 0.94C34.9553 0.604889 34.2288 0.362747 33.48 0.22C32.6321 0.0929987 31.7771 0.0195202 30.92 0H9.1C8.23714 0.0224728 7.37601 0.0892271 6.52 0.2C5.77025 0.349337 5.04382 0.598207 4.36 0.94C3.61821 1.29747 2.94205 1.77755 2.36 2.36C1.78441 2.94782 1.30518 3.62279 0.94 4.36C0.604889 5.04473 0.362747 5.77115 0.22 6.52C0.0929987 7.36787 0.0195202 8.22289 0 9.08V30.9C0.0224728 31.7629 0.0892271 32.624 0.2 33.48C0.349337 34.2298 0.598207 34.9562 0.94 35.64C1.29747 36.3818 1.77755 37.0579 2.36 37.64C2.94782 38.2156 3.62279 38.6948 4.36 39.06C5.04473 39.3951 5.77115 39.6373 6.52 39.78C7.36787 39.907 8.22289 39.9805 9.08 40H30.9C31.7629 39.9775 32.624 39.9108 33.48 39.8C34.2298 39.6507 34.9562 39.4018 35.64 39.06C36.3818 38.7025 37.0579 38.2225 37.64 37.64C38.2156 37.0522 38.6948 36.3772 39.06 35.64C39.3951 34.9553 39.6373 34.2288 39.78 33.48C39.907 32.6321 39.9805 31.7771 40 30.92V9.1ZM20.46 34C18.0581 33.9882 15.6983 33.3689 13.6 32.2L6 34.2L8 26.76C6.71023 24.5929 6.01997 22.1218 6 19.6C6.00796 16.7659 6.85441 13.9974 8.43272 11.6434C10.011 9.2894 12.2506 7.45506 14.8695 6.37143C17.4883 5.2878 20.3692 5.00334 23.1494 5.55388C25.9295 6.10441 28.4846 7.46532 30.4929 9.46521C32.5011 11.4651 33.8726 14.0145 34.4347 16.7924C34.9968 19.5702 34.7243 22.4523 33.6516 25.0756C32.5788 27.6989 30.7538 29.9461 28.4064 31.5342C26.059 33.1223 23.2941 33.9803 20.46 34ZM20.46 7.74C18.3396 7.76426 16.2635 8.34997 14.4431 9.43748C12.6227 10.525 11.123 12.0755 10.0966 13.931C9.07023 15.7866 8.5539 17.881 8.60017 20.0011C8.64644 22.1211 9.25366 24.191 10.36 26L10.64 26.46L9.44 30.84L14 29.6L14.44 29.86C16.2591 30.9315 18.3288 31.5041 20.44 31.52C23.6226 31.52 26.6748 30.2557 28.9253 28.0053C31.1757 25.7548 32.44 22.7026 32.44 19.52C32.44 16.3374 31.1757 13.2852 28.9253 11.0347C26.6748 8.78428 23.6226 7.52 20.44 7.52L20.46 7.74ZM27.46 24.78C27.198 25.2169 26.8473 25.594 26.4304 25.8869C26.0136 26.1797 25.5399 26.3818 25.04 26.48C24.2931 26.6165 23.5241 26.5685 22.8 26.34C22.1187 26.127 21.4508 25.8732 20.8 25.58C18.3275 24.3393 16.2189 22.4788 14.68 20.18C13.8438 19.115 13.3364 17.8291 13.22 16.48C13.2081 15.9196 13.3141 15.3629 13.5312 14.8461C13.7482 14.3293 14.0715 13.8638 14.48 13.48C14.6003 13.3436 14.7479 13.2339 14.9133 13.1581C15.0787 13.0823 15.2581 13.0421 15.44 13.04H16C16.22 13.04 16.52 13.04 16.8 13.66C17.08 14.28 17.82 16.14 17.92 16.32C17.9691 16.4159 17.9948 16.5222 17.9948 16.63C17.9948 16.7378 17.9691 16.8441 17.92 16.94C17.8316 17.1573 17.7102 17.3597 17.56 17.54C17.38 17.76 17.18 18.02 17.02 18.18C16.86 18.34 16.66 18.54 16.86 18.9C17.4042 19.8184 18.0778 20.6536 18.86 21.38C19.7119 22.1327 20.6858 22.7347 21.74 23.16C22.1 23.34 22.32 23.32 22.52 23.16C22.72 23 23.42 22.12 23.66 21.76C23.9 21.4 24.14 21.46 24.46 21.58C24.78 21.7 26.56 22.56 26.92 22.74C27.28 22.92 27.5 23 27.6 23.16C27.6867 23.6834 27.6386 24.2204 27.46 24.72V24.78Z" fill="#767676"/>
</svg>
