<svg width="40" height="41" viewBox="0 0 40 41" fill="none" xmlns="http://www.w3.org/2000/svg">
<circle cx="20" cy="20.3242" r="20" fill="white"/>
<path d="M17.4688 20.7188L14.3281 19.9805L15.3594 11.2617H25.332V14.332H18.582L18.1953 17.7188C18.3828 17.6094 18.6992 17.4805 19.1445 17.332C19.5977 17.1758 20.0977 17.0977 20.6445 17.0977C21.4883 17.0977 22.2344 17.2266 22.8828 17.4844C23.5391 17.7344 24.0938 18.1055 24.5469 18.5977C25 19.082 25.3398 19.6797 25.5664 20.3906C25.8008 21.1016 25.918 21.9141 25.918 22.8281C25.918 23.5625 25.7969 24.2734 25.5547 24.9609C25.3203 25.6406 24.957 26.2539 24.4648 26.8008C23.9805 27.3398 23.3672 27.7695 22.625 28.0898C21.8828 28.4023 21.0039 28.5586 19.9883 28.5586C19.2305 28.5586 18.4922 28.4414 17.7734 28.207C17.0547 27.9727 16.4062 27.6367 15.8281 27.1992C15.2578 26.7539 14.8047 26.2188 14.4688 25.5938C14.1406 24.9609 13.9805 24.2539 13.9883 23.4727H17.9609C17.9844 23.8867 18.082 24.2461 18.2539 24.5508C18.4258 24.8555 18.6562 25.0938 18.9453 25.2656C19.2422 25.4297 19.582 25.5117 19.9648 25.5117C20.3555 25.5117 20.6797 25.4336 20.9375 25.2773C21.1953 25.1211 21.3984 24.9062 21.5469 24.6328C21.6953 24.3594 21.8008 24.0469 21.8633 23.6953C21.9258 23.3359 21.957 22.957 21.957 22.5586C21.957 22.1367 21.9102 21.7578 21.8164 21.4219C21.7305 21.0859 21.5898 20.8008 21.3945 20.5664C21.1992 20.3242 20.9453 20.1406 20.6328 20.0156C20.3281 19.8906 19.9609 19.8281 19.5312 19.8281C18.9609 19.8281 18.5117 19.9258 18.1836 20.1211C17.8555 20.3164 17.6172 20.5156 17.4688 20.7188Z" fill="#005FB9"/>
</svg>
