<svg width="442" height="168" viewBox="0 0 442 168" fill="none" xmlns="http://www.w3.org/2000/svg">
<path d="M89.8182 16.1194V18.326C89.8182 19.3829 89.7132 20.2853 89.503 21.0332C89.2991 21.7749 89.0024 22.3775 88.613 22.8411C88.2236 23.3047 87.7569 23.6446 87.213 23.8609C86.6753 24.0773 86.0727 24.1854 85.4051 24.1854C84.8736 24.1854 84.3791 24.1174 83.9217 23.9815C83.4705 23.8455 83.0626 23.6322 82.6979 23.3417C82.3333 23.0512 82.0211 22.6773 81.7615 22.2199C81.5081 21.7564 81.3103 21.2032 81.1682 20.5604C81.0322 19.9176 80.9642 19.1728 80.9642 18.326V16.1194C80.9642 15.0563 81.0693 14.1601 81.2794 13.4308C81.4896 12.6953 81.7893 12.0988 82.1787 11.6414C82.5681 11.1779 83.0317 10.841 83.5694 10.6309C84.1133 10.4207 84.7191 10.3156 85.3866 10.3156C85.9243 10.3156 86.4188 10.3836 86.87 10.5196C87.3274 10.6494 87.7353 10.8565 88.0938 11.1408C88.4585 11.4251 88.7675 11.796 89.0209 12.2533C89.2805 12.7045 89.4783 13.2515 89.6143 13.8943C89.7503 14.531 89.8182 15.2727 89.8182 16.1194ZM87.5839 18.6412V15.7857C87.5839 15.2479 87.553 14.7751 87.4912 14.3672C87.4294 13.9531 87.3366 13.6038 87.213 13.3195C87.0956 13.029 86.9472 12.7942 86.768 12.6149C86.5888 12.4295 86.3848 12.2966 86.1561 12.2163C85.9274 12.1297 85.6709 12.0865 85.3866 12.0865C85.0405 12.0865 84.7314 12.1544 84.4595 12.2904C84.1875 12.4202 83.9588 12.6304 83.7734 12.9209C83.588 13.2114 83.4458 13.5946 83.3469 14.0705C83.2542 14.5402 83.2078 15.112 83.2078 15.7857V18.6412C83.2078 19.1851 83.2388 19.6641 83.3006 20.0783C83.3624 20.4924 83.4551 20.8478 83.5787 21.1445C83.7023 21.435 83.8507 21.676 84.0237 21.8676C84.203 22.053 84.4069 22.189 84.6356 22.2755C84.8705 22.3621 85.127 22.4053 85.4051 22.4053C85.7574 22.4053 86.0696 22.3374 86.3415 22.2014C86.6135 22.0654 86.8422 21.8491 87.0276 21.5524C87.213 21.2495 87.3521 20.857 87.4448 20.3749C87.5375 19.8928 87.5839 19.3149 87.5839 18.6412ZM96.4379 17.3432V19.1233H91.5334V17.3432H96.4379ZM100.888 16.24H102.223C102.742 16.24 103.172 16.1503 103.512 15.9711C103.858 15.7919 104.114 15.5446 104.281 15.2294C104.448 14.9142 104.532 14.5526 104.532 14.1447C104.532 13.7182 104.454 13.3535 104.3 13.0507C104.152 12.7416 103.923 12.5037 103.614 12.3368C103.311 12.1699 102.925 12.0865 102.455 12.0865C102.059 12.0865 101.701 12.1668 101.379 12.3275C101.064 12.482 100.814 12.7045 100.629 12.995C100.443 13.2794 100.35 13.6193 100.35 14.0149H98.1067C98.1067 13.2979 98.2952 12.6613 98.6723 12.105C99.0493 11.5487 99.5623 11.113 100.211 10.7978C100.866 10.4764 101.602 10.3156 102.418 10.3156C103.289 10.3156 104.05 10.4609 104.699 10.7514C105.354 11.0357 105.864 11.4622 106.228 12.0308C106.593 12.5995 106.775 13.3041 106.775 14.1447C106.775 14.5279 106.686 14.9173 106.506 15.3128C106.327 15.7084 106.061 16.07 105.709 16.3976C105.357 16.719 104.918 16.9817 104.393 17.1856C103.867 17.3834 103.258 17.4823 102.566 17.4823H100.888V16.24ZM100.888 17.983V16.7592H102.566C103.357 16.7592 104.031 16.8519 104.587 17.0373C105.15 17.2227 105.607 17.4792 105.959 17.8068C106.312 18.1282 106.568 18.496 106.729 18.9101C106.896 19.3242 106.979 19.763 106.979 20.2266C106.979 20.857 106.865 21.4195 106.636 21.914C106.414 22.4023 106.095 22.8164 105.681 23.1563C105.267 23.4963 104.782 23.7528 104.226 23.9258C103.676 24.0989 103.076 24.1854 102.427 24.1854C101.846 24.1854 101.29 24.1051 100.758 23.9444C100.227 23.7837 99.7508 23.5457 99.3305 23.2305C98.9102 22.9091 98.5765 22.5104 98.3292 22.0345C98.0882 21.5524 97.9677 20.9961 97.9677 20.3657H100.202C100.202 20.7674 100.295 21.1228 100.48 21.4319C100.672 21.7347 100.938 21.9727 101.277 22.1458C101.624 22.3188 102.019 22.4053 102.464 22.4053C102.934 22.4053 103.339 22.3219 103.679 22.155C104.019 21.9881 104.278 21.7409 104.458 21.4133C104.643 21.0857 104.736 20.6902 104.736 20.2266C104.736 19.7012 104.634 19.2748 104.43 18.9472C104.226 18.6196 103.935 18.3785 103.558 18.224C103.181 18.0633 102.736 17.983 102.223 17.983H100.888ZM117.854 16.1194V18.326C117.854 19.3829 117.749 20.2853 117.539 21.0332C117.335 21.7749 117.039 22.3775 116.649 22.8411C116.26 23.3047 115.793 23.6446 115.249 23.8609C114.712 24.0773 114.109 24.1854 113.441 24.1854C112.91 24.1854 112.415 24.1174 111.958 23.9815C111.507 23.8455 111.099 23.6322 110.734 23.3417C110.369 23.0512 110.057 22.6773 109.798 22.2199C109.544 21.7564 109.347 21.2032 109.204 20.5604C109.068 19.9176 109 19.1728 109 18.326V16.1194C109 15.0563 109.106 14.1601 109.316 13.4308C109.526 12.6953 109.826 12.0988 110.215 11.6414C110.604 11.1779 111.068 10.841 111.606 10.6309C112.15 10.4207 112.755 10.3156 113.423 10.3156C113.961 10.3156 114.455 10.3836 114.906 10.5196C115.364 10.6494 115.772 10.8565 116.13 11.1408C116.495 11.4251 116.804 11.796 117.057 12.2533C117.317 12.7045 117.515 13.2515 117.651 13.8943C117.786 14.531 117.854 15.2727 117.854 16.1194ZM115.62 18.6412V15.7857C115.62 15.2479 115.589 14.7751 115.527 14.3672C115.466 13.9531 115.373 13.6038 115.249 13.3195C115.132 13.029 114.983 12.7942 114.804 12.6149C114.625 12.4295 114.421 12.2966 114.192 12.2163C113.964 12.1297 113.707 12.0865 113.423 12.0865C113.077 12.0865 112.768 12.1544 112.496 12.2904C112.224 12.4202 111.995 12.6304 111.81 12.9209C111.624 13.2114 111.482 13.5946 111.383 14.0705C111.29 14.5402 111.244 15.112 111.244 15.7857V18.6412C111.244 19.1851 111.275 19.6641 111.337 20.0783C111.399 20.4924 111.491 20.8478 111.615 21.1445C111.739 21.435 111.887 21.676 112.06 21.8676C112.239 22.053 112.443 22.189 112.672 22.2755C112.907 22.3621 113.163 22.4053 113.441 22.4053C113.794 22.4053 114.106 22.3374 114.378 22.2014C114.65 22.0654 114.878 21.8491 115.064 21.5524C115.249 21.2495 115.388 20.857 115.481 20.3749C115.574 19.8928 115.62 19.3149 115.62 18.6412ZM128.646 16.1194V18.326C128.646 19.3829 128.541 20.2853 128.331 21.0332C128.127 21.7749 127.83 22.3775 127.441 22.8411C127.052 23.3047 126.585 23.6446 126.041 23.8609C125.503 24.0773 124.901 24.1854 124.233 24.1854C123.702 24.1854 123.207 24.1174 122.75 23.9815C122.298 23.8455 121.891 23.6322 121.526 23.3417C121.161 23.0512 120.849 22.6773 120.589 22.2199C120.336 21.7564 120.138 21.2032 119.996 20.5604C119.86 19.9176 119.792 19.1728 119.792 18.326V16.1194C119.792 15.0563 119.897 14.1601 120.107 13.4308C120.318 12.6953 120.617 12.0988 121.007 11.6414C121.396 11.1779 121.86 10.841 122.397 10.6309C122.941 10.4207 123.547 10.3156 124.215 10.3156C124.752 10.3156 125.247 10.3836 125.698 10.5196C126.155 10.6494 126.563 10.8565 126.922 11.1408C127.286 11.4251 127.595 11.796 127.849 12.2533C128.108 12.7045 128.306 13.2515 128.442 13.8943C128.578 14.531 128.646 15.2727 128.646 16.1194ZM126.412 18.6412V15.7857C126.412 15.2479 126.381 14.7751 126.319 14.3672C126.257 13.9531 126.165 13.6038 126.041 13.3195C125.924 13.029 125.775 12.7942 125.596 12.6149C125.417 12.4295 125.213 12.2966 124.984 12.2163C124.755 12.1297 124.499 12.0865 124.215 12.0865C123.868 12.0865 123.559 12.1544 123.287 12.2904C123.015 12.4202 122.787 12.6304 122.601 12.9209C122.416 13.2114 122.274 13.5946 122.175 14.0705C122.082 14.5402 122.036 15.112 122.036 15.7857V18.6412C122.036 19.1851 122.067 19.6641 122.129 20.0783C122.19 20.4924 122.283 20.8478 122.407 21.1445C122.53 21.435 122.679 21.676 122.852 21.8676C123.031 22.053 123.235 22.189 123.464 22.2755C123.698 22.3621 123.955 22.4053 124.233 22.4053C124.585 22.4053 124.898 22.3374 125.169 22.2014C125.441 22.0654 125.67 21.8491 125.856 21.5524C126.041 21.2495 126.18 20.857 126.273 20.3749C126.365 19.8928 126.412 19.3149 126.412 18.6412ZM137.741 15.8969V27.8568H135.507V13.9685H137.565L137.741 15.8969ZM144.278 18.8915V19.0862C144.278 19.8156 144.191 20.4924 144.018 21.1166C143.851 21.7347 143.601 22.2755 143.267 22.7391C142.939 23.1965 142.535 23.5519 142.052 23.8053C141.57 24.0587 141.014 24.1854 140.384 24.1854C139.759 24.1854 139.212 24.0711 138.743 23.8424C138.279 23.6075 137.887 23.2768 137.565 22.8504C137.244 22.4239 136.984 21.9232 136.786 21.3484C136.595 20.7674 136.459 20.1308 136.378 19.4385V18.6876C136.459 17.9521 136.595 17.2845 136.786 16.685C136.984 16.0855 137.244 15.5694 137.565 15.1367C137.887 14.704 138.279 14.3703 138.743 14.1354C139.206 13.9005 139.747 13.7831 140.365 13.7831C140.995 13.7831 141.555 13.9067 142.043 14.1539C142.531 14.395 142.942 14.7411 143.276 15.1923C143.61 15.6373 143.86 16.1751 144.027 16.8055C144.194 17.4298 144.278 18.1251 144.278 18.8915ZM142.043 19.0862V18.8915C142.043 18.428 142 17.9984 141.913 17.6028C141.827 17.2011 141.691 16.8488 141.505 16.5459C141.32 16.2431 141.082 16.0082 140.792 15.8413C140.507 15.6682 140.164 15.5817 139.762 15.5817C139.367 15.5817 139.027 15.6497 138.743 15.7857C138.458 15.9155 138.22 16.0978 138.029 16.3327C137.837 16.5676 137.689 16.8426 137.584 17.1578C137.479 17.4669 137.404 17.8037 137.361 18.1684V19.967C137.435 20.412 137.562 20.82 137.741 21.1908C137.921 21.5617 138.174 21.8583 138.502 22.0809C138.835 22.2972 139.262 22.4053 139.781 22.4053C140.183 22.4053 140.526 22.3188 140.81 22.1458C141.094 21.9727 141.326 21.7347 141.505 21.4319C141.691 21.1228 141.827 20.7674 141.913 20.3657C142 19.9639 142.043 19.5374 142.043 19.0862ZM145.752 19.0955V18.8823C145.752 18.1591 145.857 17.4885 146.067 16.8704C146.277 16.2462 146.58 15.7053 146.975 15.2479C147.377 14.7844 147.865 14.4259 148.44 14.1725C149.021 13.9129 149.676 13.7831 150.406 13.7831C151.141 13.7831 151.796 13.9129 152.371 14.1725C152.952 14.4259 153.444 14.7844 153.845 15.2479C154.247 15.7053 154.553 16.2462 154.763 16.8704C154.973 17.4885 155.079 18.1591 155.079 18.8823V19.0955C155.079 19.8187 154.973 20.4893 154.763 21.1074C154.553 21.7255 154.247 22.2663 153.845 22.7298C153.444 23.1872 152.955 23.5457 152.381 23.8053C151.806 24.0587 151.154 24.1854 150.424 24.1854C149.689 24.1854 149.031 24.0587 148.45 23.8053C147.875 23.5457 147.386 23.1872 146.985 22.7298C146.583 22.2663 146.277 21.7255 146.067 21.1074C145.857 20.4893 145.752 19.8187 145.752 19.0955ZM147.986 18.8823V19.0955C147.986 19.5467 148.032 19.9732 148.125 20.3749C148.218 20.7767 148.363 21.129 148.561 21.4319C148.759 21.7347 149.012 21.9727 149.321 22.1458C149.63 22.3188 149.998 22.4053 150.424 22.4053C150.838 22.4053 151.197 22.3188 151.5 22.1458C151.809 21.9727 152.062 21.7347 152.26 21.4319C152.458 21.129 152.603 20.7767 152.696 20.3749C152.795 19.9732 152.844 19.5467 152.844 19.0955V18.8823C152.844 18.4373 152.795 18.017 152.696 17.6214C152.603 17.2196 152.455 16.8642 152.251 16.5552C152.053 16.2462 151.8 16.0051 151.491 15.832C151.188 15.6528 150.826 15.5632 150.406 15.5632C149.986 15.5632 149.621 15.6528 149.312 15.832C149.009 16.0051 148.759 16.2462 148.561 16.5552C148.363 16.8642 148.218 17.2196 148.125 17.6214C148.032 18.017 147.986 18.4373 147.986 18.8823ZM159.343 13.9685V24H157.1V13.9685H159.343ZM156.951 11.3355C156.951 10.9955 157.063 10.7143 157.285 10.4918C157.514 10.2631 157.829 10.1488 158.231 10.1488C158.626 10.1488 158.938 10.2631 159.167 10.4918C159.396 10.7143 159.51 10.9955 159.51 11.3355C159.51 11.6692 159.396 11.9474 159.167 12.1699C158.938 12.3924 158.626 12.5037 158.231 12.5037C157.829 12.5037 157.514 12.3924 157.285 12.1699C157.063 11.9474 156.951 11.6692 156.951 11.3355ZM164.007 16.1102V24H161.772V13.9685H163.877L164.007 16.1102ZM163.608 18.6134L162.885 18.6041C162.891 17.8933 162.99 17.2413 163.182 16.6479C163.379 16.0545 163.651 15.5446 163.997 15.1182C164.35 14.6917 164.77 14.3641 165.258 14.1354C165.747 13.9005 166.291 13.7831 166.89 13.7831C167.372 13.7831 167.808 13.8511 168.197 13.9871C168.593 14.1169 168.93 14.3301 169.208 14.6268C169.492 14.9235 169.709 15.3098 169.857 15.7857C170.005 16.2554 170.079 16.8333 170.079 17.5194V24H167.836V17.5101C167.836 17.028 167.765 16.6479 167.622 16.3698C167.487 16.0855 167.286 15.8846 167.02 15.7671C166.76 15.6435 166.436 15.5817 166.046 15.5817C165.663 15.5817 165.32 15.6621 165.017 15.8228C164.714 15.9835 164.458 16.2029 164.248 16.481C164.044 16.7592 163.886 17.0806 163.775 17.4452C163.664 17.8099 163.608 18.1993 163.608 18.6134ZM176.959 13.9685V15.6003H171.303V13.9685H176.959ZM172.935 11.5116H175.169V21.2279C175.169 21.5369 175.213 21.7749 175.299 21.9418C175.392 22.1025 175.519 22.2107 175.679 22.2663C175.84 22.3219 176.028 22.3497 176.245 22.3497C176.399 22.3497 176.548 22.3404 176.69 22.3219C176.832 22.3034 176.946 22.2848 177.033 22.2663L177.042 23.9722C176.857 24.0278 176.64 24.0773 176.393 24.1205C176.152 24.1638 175.874 24.1854 175.559 24.1854C175.046 24.1854 174.591 24.0958 174.196 23.9166C173.8 23.7311 173.491 23.4314 173.269 23.0172C173.046 22.6031 172.935 22.053 172.935 21.367V11.5116ZM184.311 21.2835C184.311 21.061 184.255 20.8601 184.144 20.6809C184.033 20.4955 183.819 20.3286 183.504 20.1802C183.195 20.0319 182.738 19.8959 182.132 19.7723C181.6 19.6549 181.112 19.5158 180.667 19.3551C180.228 19.1882 179.851 18.9873 179.536 18.7525C179.221 18.5176 178.977 18.2395 178.804 17.9181C178.631 17.5967 178.544 17.2258 178.544 16.8055C178.544 16.3976 178.634 16.0113 178.813 15.6466C178.992 15.2819 179.249 14.9605 179.582 14.6824C179.916 14.4043 180.321 14.1848 180.797 14.0241C181.279 13.8634 181.817 13.7831 182.41 13.7831C183.251 13.7831 183.971 13.9253 184.57 14.2096C185.176 14.4877 185.64 14.8678 185.961 15.3499C186.282 15.8259 186.443 16.3636 186.443 16.9631H184.209C184.209 16.6974 184.141 16.4501 184.005 16.2214C183.875 15.9866 183.677 15.798 183.411 15.6559C183.146 15.5075 182.812 15.4334 182.41 15.4334C182.027 15.4334 181.709 15.4952 181.455 15.6188C181.208 15.7362 181.023 15.8908 180.899 16.0824C180.781 16.274 180.723 16.4841 180.723 16.7128C180.723 16.8797 180.754 17.0311 180.815 17.1671C180.883 17.2969 180.995 17.4174 181.149 17.5287C181.304 17.6337 181.514 17.7326 181.78 17.8254C182.052 17.9181 182.392 18.0077 182.8 18.0942C183.566 18.2549 184.224 18.462 184.774 18.7154C185.331 18.9626 185.757 19.284 186.054 19.6796C186.35 20.069 186.499 20.5635 186.499 21.163C186.499 21.608 186.403 22.016 186.211 22.3868C186.026 22.7515 185.754 23.0698 185.395 23.3417C185.037 23.6075 184.607 23.8146 184.107 23.9629C183.612 24.1113 183.056 24.1854 182.438 24.1854C181.529 24.1854 180.76 24.0247 180.129 23.7033C179.499 23.3757 179.02 22.9585 178.692 22.4517C178.371 21.9387 178.21 21.4071 178.21 20.857H180.37C180.395 21.2712 180.51 21.6018 180.713 21.8491C180.924 22.0901 181.183 22.2663 181.492 22.3775C181.807 22.4826 182.132 22.5351 182.466 22.5351C182.868 22.5351 183.204 22.4826 183.476 22.3775C183.748 22.2663 183.955 22.1179 184.097 21.9325C184.24 21.7409 184.311 21.5246 184.311 21.2835Z" fill="black"/>
<path d="M90.6822 43.263V45.108H83.5155V43.263H90.6822ZM84.0903 37.6261V51.125H81.7632V37.6261H84.0903ZM92.4715 37.6261V51.125H90.1537V37.6261H92.4715ZM94.5946 46.2205V46.0073C94.5946 45.2841 94.6997 44.6135 94.9099 43.9954C95.12 43.3712 95.4229 42.8303 95.8185 42.3729C96.2202 41.9094 96.7085 41.5509 97.2833 41.2975C97.8643 41.0379 98.5195 40.9081 99.2488 40.9081C99.9843 40.9081 100.639 41.0379 101.214 41.2975C101.795 41.5509 102.287 41.9094 102.688 42.3729C103.09 42.8303 103.396 43.3712 103.606 43.9954C103.816 44.6135 103.922 45.2841 103.922 46.0073V46.2205C103.922 46.9437 103.816 47.6143 103.606 48.2324C103.396 48.8505 103.09 49.3913 102.688 49.8548C102.287 50.3122 101.798 50.6707 101.224 50.9303C100.649 51.1837 99.9967 51.3104 99.2674 51.3104C98.5318 51.3104 97.8736 51.1837 97.2926 50.9303C96.7178 50.6707 96.2295 50.3122 95.8277 49.8548C95.426 49.3913 95.12 48.8505 94.9099 48.2324C94.6997 47.6143 94.5946 46.9437 94.5946 46.2205ZM96.829 46.0073V46.2205C96.829 46.6717 96.8754 47.0982 96.9681 47.4999C97.0608 47.9017 97.206 48.254 97.4038 48.5569C97.6016 48.8597 97.855 49.0977 98.1641 49.2708C98.4731 49.4438 98.8409 49.5303 99.2674 49.5303C99.6815 49.5303 100.04 49.4438 100.343 49.2708C100.652 49.0977 100.905 48.8597 101.103 48.5569C101.301 48.254 101.446 47.9017 101.539 47.4999C101.638 47.0982 101.687 46.6717 101.687 46.2205V46.0073C101.687 45.5623 101.638 45.142 101.539 44.7464C101.446 44.3446 101.298 43.9892 101.094 43.6802C100.896 43.3712 100.643 43.1301 100.334 42.957C100.031 42.7778 99.6691 42.6882 99.2488 42.6882C98.8285 42.6882 98.4638 42.7778 98.1548 42.957C97.8519 43.1301 97.6016 43.3712 97.4038 43.6802C97.206 43.9892 97.0608 44.3446 96.9681 44.7464C96.8754 45.142 96.829 45.5623 96.829 46.0073ZM108.038 43.0034V51.125H105.804V41.0935H107.936L108.038 43.0034ZM111.107 41.0286L111.088 43.1054C110.952 43.0807 110.804 43.0621 110.643 43.0497C110.489 43.0374 110.334 43.0312 110.18 43.0312C109.796 43.0312 109.46 43.0868 109.169 43.1981C108.879 43.3032 108.634 43.4577 108.437 43.6617C108.245 43.8594 108.097 44.1005 107.992 44.3848C107.887 44.6691 107.825 44.9874 107.806 45.3397L107.296 45.3768C107.296 44.7464 107.358 44.1623 107.482 43.6246C107.605 43.0868 107.791 42.614 108.038 42.2061C108.291 41.7981 108.607 41.4798 108.984 41.2511C109.367 41.0224 109.809 40.9081 110.309 40.9081C110.445 40.9081 110.591 40.9205 110.745 40.9452C110.906 40.9699 111.026 40.9977 111.107 41.0286ZM114.75 43.0034V51.125H112.516V41.0935H114.648L114.75 43.0034ZM117.819 41.0286L117.801 43.1054C117.665 43.0807 117.516 43.0621 117.356 43.0497C117.201 43.0374 117.047 43.0312 116.892 43.0312C116.509 43.0312 116.172 43.0868 115.881 43.1981C115.591 43.3032 115.347 43.4577 115.149 43.6617C114.957 43.8594 114.809 44.1005 114.704 44.3848C114.599 44.6691 114.537 44.9874 114.519 45.3397L114.009 45.3768C114.009 44.7464 114.07 44.1623 114.194 43.6246C114.318 43.0868 114.503 42.614 114.75 42.2061C115.004 41.7981 115.319 41.4798 115.696 41.2511C116.079 41.0224 116.521 40.9081 117.022 40.9081C117.158 40.9081 117.303 40.9205 117.458 40.9452C117.618 40.9699 117.739 40.9977 117.819 41.0286ZM121.611 41.0935V51.125H119.367V41.0935H121.611ZM119.219 38.4605C119.219 38.1205 119.33 37.8393 119.553 37.6168C119.782 37.3881 120.097 37.2738 120.498 37.2738C120.894 37.2738 121.206 37.3881 121.435 37.6168C121.664 37.8393 121.778 38.1205 121.778 38.4605C121.778 38.7942 121.664 39.0724 121.435 39.2949C121.206 39.5174 120.894 39.6287 120.498 39.6287C120.097 39.6287 119.782 39.5174 119.553 39.2949C119.33 39.0724 119.219 38.7942 119.219 38.4605ZM124.068 36.8844H126.302V48.9833L126.089 51.125H124.068V36.8844ZM132.848 46.0165V46.2112C132.848 46.9529 132.764 47.6359 132.597 48.2602C132.437 48.8783 132.19 49.416 131.856 49.8734C131.528 50.3308 131.12 50.6862 130.632 50.9396C130.15 51.1868 129.59 51.3104 128.954 51.3104C128.33 51.3104 127.786 51.193 127.322 50.9581C126.859 50.7232 126.469 50.3895 126.154 49.9568C125.845 49.5242 125.595 49.0081 125.403 48.4085C125.211 47.809 125.075 47.1476 124.995 46.4245V45.8033C125.075 45.074 125.211 44.4126 125.403 43.8193C125.595 43.2197 125.845 42.7036 126.154 42.271C126.469 41.8321 126.855 41.4953 127.313 41.2604C127.776 41.0255 128.317 40.9081 128.935 40.9081C129.578 40.9081 130.144 41.0317 130.632 41.2789C131.126 41.5262 131.537 41.8785 131.865 42.3359C132.193 42.7871 132.437 43.3248 132.597 43.9491C132.764 44.5733 132.848 45.2625 132.848 46.0165ZM130.613 46.2112V46.0165C130.613 45.5653 130.576 45.142 130.502 44.7464C130.428 44.3446 130.304 43.9923 130.131 43.6895C129.964 43.3866 129.736 43.1486 129.445 42.9756C129.161 42.7963 128.806 42.7067 128.379 42.7067C127.983 42.7067 127.644 42.7747 127.359 42.9107C127.075 43.0467 126.837 43.2321 126.645 43.467C126.454 43.7018 126.302 43.9738 126.191 44.2828C126.086 44.5919 126.015 44.9256 125.978 45.2841V46.9622C126.033 47.4258 126.151 47.8523 126.33 48.2416C126.516 48.6249 126.775 48.9339 127.109 49.1688C127.443 49.3975 127.872 49.5118 128.398 49.5118C128.812 49.5118 129.161 49.4284 129.445 49.2615C129.73 49.0946 129.955 48.8628 130.122 48.5661C130.295 48.2633 130.419 47.911 130.493 47.5092C130.573 47.1075 130.613 46.6748 130.613 46.2112ZM137.131 36.8844V51.125H134.887V36.8844H137.131ZM144.001 51.3104C143.259 51.3104 142.589 51.1899 141.989 50.9488C141.396 50.7016 140.889 50.3586 140.469 49.9197C140.055 49.4809 139.736 48.9648 139.514 48.3714C139.291 47.7781 139.18 47.1384 139.18 46.4523V46.0814C139.18 45.2965 139.294 44.5857 139.523 43.9491C139.752 43.3124 140.07 42.7685 140.478 42.3173C140.886 41.8599 141.368 41.5107 141.924 41.2697C142.481 41.0286 143.083 40.9081 143.732 40.9081C144.449 40.9081 145.077 41.0286 145.614 41.2697C146.152 41.5107 146.597 41.8507 146.949 42.2895C147.308 42.7222 147.574 43.2383 147.747 43.8378C147.926 44.4373 148.016 45.0987 148.016 45.8219V46.7768H140.265V45.1729H145.809V44.9967C145.797 44.595 145.716 44.2179 145.568 43.8656C145.426 43.5133 145.206 43.229 144.91 43.0127C144.613 42.7963 144.217 42.6882 143.723 42.6882C143.352 42.6882 143.021 42.7685 142.731 42.9292C142.447 43.0837 142.209 43.3093 142.017 43.606C141.825 43.9027 141.677 44.2612 141.572 44.6815C141.473 45.0956 141.424 45.5623 141.424 46.0814V46.4523C141.424 46.8911 141.482 47.2991 141.6 47.6761C141.723 48.0469 141.903 48.3714 142.138 48.6496C142.372 48.9277 142.657 49.1471 142.991 49.3078C143.324 49.4624 143.704 49.5396 144.131 49.5396C144.669 49.5396 145.148 49.4315 145.568 49.2151C145.988 48.9988 146.353 48.6928 146.662 48.2973L147.839 49.4376C147.623 49.7529 147.342 50.0557 146.996 50.3462C146.65 50.6305 146.226 50.8623 145.726 51.0416C145.231 51.2208 144.656 51.3104 144.001 51.3104Z" fill="#B00020"/>
<circle cx="6.91865" cy="26.4934" r="5.425" fill="white"/>
<path d="M12.6665 40.4667L31.9998 25.4667L51.3332 40.4667C50.0443 43.9778 48.1892 47.1441 45.7678 49.9654C43.3447 52.7885 40.5332 55.0223 37.3332 56.6667V42.7334C37.3332 41.9778 37.0781 41.3441 36.5678 40.8321C36.0558 40.3218 35.4221 40.0667 34.6665 40.0667H29.3332C28.5776 40.0667 27.9447 40.3218 27.4345 40.8321C26.9225 41.3441 26.6665 41.9778 26.6665 42.7334V56.6667C23.4665 55.0223 20.6558 52.7885 18.2345 49.9654C15.8114 47.1441 13.9554 43.9778 12.6665 40.4667ZM10.6665 29.6001V17.0667C10.6665 15.9556 10.9892 14.9441 11.6345 14.0321C12.2781 13.1218 13.1109 12.4667 14.1332 12.0667L30.1332 6.06673C30.7554 5.84451 31.3776 5.7334 31.9998 5.7334C32.6221 5.7334 33.2443 5.84451 33.8665 6.06673L49.8665 12.0667C50.8887 12.4667 51.7225 13.1218 52.3678 14.0321C53.0114 14.9441 53.3332 15.9556 53.3332 17.0667V29.6001C53.3332 30.489 53.2887 31.3663 53.1998 32.2321C53.1109 33.0996 52.9998 33.9778 52.8665 34.8667L35.2665 21.2667C34.2887 20.5112 33.1998 20.1334 31.9998 20.1334C30.7998 20.1334 29.7109 20.5112 28.7332 21.2667L11.1332 34.8667C10.9554 33.9778 10.8327 33.0996 10.7652 32.2321C10.6994 31.3663 10.6665 30.489 10.6665 29.6001Z" fill="#B00020"/>
<path d="M89.9851 114.501V115.725L84.5893 128H82.2344L87.621 116.281H80.6304V114.501H89.9851ZM100.61 120.119V122.326C100.61 123.383 100.505 124.285 100.295 125.033C100.091 125.775 99.7941 126.378 99.4047 126.841C99.0153 127.305 98.5487 127.645 98.0047 127.861C97.467 128.077 96.8644 128.185 96.1969 128.185C95.6653 128.185 95.1708 128.117 94.7135 127.981C94.2623 127.845 93.8543 127.632 93.4897 127.342C93.125 127.051 92.8129 126.677 92.5533 126.22C92.2998 125.756 92.1021 125.203 91.9599 124.56C91.8239 123.918 91.7559 123.173 91.7559 122.326V120.119C91.7559 119.056 91.861 118.16 92.0712 117.431C92.2813 116.695 92.5811 116.099 92.9705 115.641C93.3599 115.178 93.8234 114.841 94.3612 114.631C94.9051 114.421 95.5108 114.316 96.1783 114.316C96.716 114.316 97.2105 114.384 97.6617 114.52C98.1191 114.649 98.527 114.856 98.8855 115.141C99.2502 115.425 99.5592 115.796 99.8126 116.253C100.072 116.705 100.27 117.252 100.406 117.894C100.542 118.531 100.61 119.273 100.61 120.119ZM98.3756 122.641V119.786C98.3756 119.248 98.3447 118.775 98.2829 118.367C98.2211 117.953 98.1284 117.604 98.0047 117.32C97.8873 117.029 97.739 116.794 97.5597 116.615C97.3805 116.429 97.1765 116.297 96.9478 116.216C96.7191 116.13 96.4626 116.086 96.1783 116.086C95.8322 116.086 95.5231 116.154 95.2512 116.29C94.9792 116.42 94.7505 116.63 94.5651 116.921C94.3797 117.211 94.2375 117.595 94.1386 118.071C94.0459 118.54 93.9996 119.112 93.9996 119.786V122.641C93.9996 123.185 94.0305 123.664 94.0923 124.078C94.1541 124.492 94.2468 124.848 94.3704 125.144C94.494 125.435 94.6424 125.676 94.8154 125.868C94.9947 126.053 95.1987 126.189 95.4273 126.276C95.6622 126.362 95.9187 126.405 96.1969 126.405C96.5492 126.405 96.8613 126.337 97.1333 126.201C97.4052 126.065 97.6339 125.849 97.8193 125.552C98.0047 125.25 98.1438 124.857 98.2365 124.375C98.3292 123.893 98.3756 123.315 98.3756 122.641ZM108.704 114.455V128H106.469V117.106L103.16 118.228V116.383L108.435 114.455H108.704ZM118.021 121.343V123.123H113.117V121.343H118.021ZM128.674 124.319C128.674 125.16 128.479 125.868 128.09 126.442C127.701 127.017 127.169 127.453 126.495 127.75C125.828 128.04 125.074 128.185 124.233 128.185C123.392 128.185 122.635 128.04 121.962 127.75C121.288 127.453 120.756 127.017 120.367 126.442C119.978 125.868 119.783 125.16 119.783 124.319C119.783 123.763 119.891 123.259 120.107 122.808C120.324 122.351 120.63 121.958 121.025 121.631C121.427 121.297 121.897 121.04 122.434 120.861C122.978 120.682 123.572 120.592 124.215 120.592C125.068 120.592 125.831 120.75 126.505 121.065C127.178 121.38 127.707 121.816 128.09 122.372C128.479 122.929 128.674 123.578 128.674 124.319ZM126.43 124.208C126.43 123.757 126.338 123.361 126.152 123.021C125.967 122.681 125.707 122.419 125.373 122.233C125.04 122.048 124.653 121.955 124.215 121.955C123.77 121.955 123.383 122.048 123.056 122.233C122.728 122.419 122.472 122.681 122.286 123.021C122.107 123.361 122.017 123.757 122.017 124.208C122.017 124.665 122.107 125.061 122.286 125.395C122.465 125.722 122.722 125.973 123.056 126.146C123.389 126.319 123.782 126.405 124.233 126.405C124.684 126.405 125.074 126.319 125.401 126.146C125.729 125.973 125.982 125.722 126.162 125.395C126.341 125.061 126.43 124.665 126.43 124.208ZM128.368 118.052C128.368 118.726 128.189 119.325 127.83 119.851C127.478 120.376 126.99 120.79 126.365 121.093C125.741 121.39 125.03 121.538 124.233 121.538C123.43 121.538 122.713 121.39 122.082 121.093C121.458 120.79 120.967 120.376 120.608 119.851C120.256 119.325 120.08 118.726 120.08 118.052C120.08 117.248 120.256 116.572 120.608 116.022C120.967 115.465 121.458 115.042 122.082 114.751C122.706 114.461 123.42 114.316 124.224 114.316C125.027 114.316 125.741 114.461 126.365 114.751C126.99 115.042 127.478 115.465 127.83 116.022C128.189 116.572 128.368 117.248 128.368 118.052ZM126.134 118.126C126.134 117.724 126.053 117.372 125.893 117.069C125.738 116.76 125.519 116.519 125.234 116.346C124.95 116.173 124.613 116.086 124.224 116.086C123.834 116.086 123.498 116.17 123.213 116.337C122.929 116.504 122.71 116.739 122.555 117.041C122.4 117.344 122.323 117.706 122.323 118.126C122.323 118.54 122.4 118.902 122.555 119.211C122.71 119.514 122.929 119.752 123.213 119.925C123.504 120.098 123.844 120.184 124.233 120.184C124.622 120.184 124.959 120.098 125.244 119.925C125.528 119.752 125.747 119.514 125.902 119.211C126.056 118.902 126.134 118.54 126.134 118.126ZM132.985 121.723L131.205 121.288L131.937 114.501H139.215V116.392H133.792L133.421 119.702C133.631 119.579 133.922 119.458 134.292 119.341C134.663 119.217 135.087 119.155 135.563 119.155C136.199 119.155 136.768 119.26 137.268 119.47C137.775 119.674 138.205 119.974 138.557 120.37C138.909 120.759 139.178 121.235 139.364 121.798C139.549 122.354 139.642 122.981 139.642 123.68C139.642 124.304 139.549 124.888 139.364 125.432C139.185 125.976 138.913 126.455 138.548 126.869C138.183 127.283 137.723 127.608 137.166 127.842C136.616 128.071 135.964 128.185 135.21 128.185C134.648 128.185 134.107 128.105 133.588 127.944C133.075 127.777 132.614 127.533 132.206 127.212C131.798 126.884 131.471 126.483 131.224 126.007C130.976 125.525 130.834 124.971 130.797 124.347H132.985C133.041 124.786 133.161 125.16 133.347 125.469C133.538 125.772 133.792 126.004 134.107 126.164C134.422 126.325 134.787 126.405 135.201 126.405C135.578 126.405 135.902 126.34 136.174 126.211C136.446 126.075 136.672 125.883 136.851 125.636C137.037 125.382 137.173 125.086 137.259 124.746C137.352 124.406 137.398 124.029 137.398 123.615C137.398 123.219 137.346 122.858 137.241 122.53C137.142 122.202 136.99 121.918 136.786 121.677C136.589 121.436 136.338 121.251 136.035 121.121C135.733 120.985 135.383 120.917 134.988 120.917C134.456 120.917 134.048 120.994 133.764 121.149C133.486 121.303 133.226 121.495 132.985 121.723ZM150.23 120.119V122.326C150.23 123.383 150.125 124.285 149.914 125.033C149.71 125.775 149.414 126.378 149.024 126.841C148.635 127.305 148.168 127.645 147.624 127.861C147.087 128.077 146.484 128.185 145.817 128.185C145.285 128.185 144.791 128.117 144.333 127.981C143.882 127.845 143.474 127.632 143.109 127.342C142.745 127.051 142.433 126.677 142.173 126.22C141.92 125.756 141.722 125.203 141.58 124.56C141.444 123.918 141.376 123.173 141.376 122.326V120.119C141.376 119.056 141.481 118.16 141.691 117.431C141.901 116.695 142.201 116.099 142.59 115.641C142.98 115.178 143.443 114.841 143.981 114.631C144.525 114.421 145.13 114.316 145.798 114.316C146.336 114.316 146.83 114.384 147.281 114.52C147.739 114.649 148.147 114.856 148.505 115.141C148.87 115.425 149.179 115.796 149.432 116.253C149.692 116.705 149.89 117.252 150.026 117.894C150.162 118.531 150.23 119.273 150.23 120.119ZM147.995 122.641V119.786C147.995 119.248 147.964 118.775 147.903 118.367C147.841 117.953 147.748 117.604 147.624 117.32C147.507 117.029 147.359 116.794 147.179 116.615C147 116.429 146.796 116.297 146.568 116.216C146.339 116.13 146.082 116.086 145.798 116.086C145.452 116.086 145.143 116.154 144.871 116.29C144.599 116.42 144.37 116.63 144.185 116.921C143.999 117.211 143.857 117.595 143.758 118.071C143.666 118.54 143.619 119.112 143.619 119.786V122.641C143.619 123.185 143.65 123.664 143.712 124.078C143.774 124.492 143.866 124.848 143.99 125.144C144.114 125.435 144.262 125.676 144.435 125.868C144.614 126.053 144.818 126.189 145.047 126.276C145.282 126.362 145.538 126.405 145.817 126.405C146.169 126.405 146.481 126.337 146.753 126.201C147.025 126.065 147.254 125.849 147.439 125.552C147.624 125.25 147.763 124.857 147.856 124.375C147.949 123.893 147.995 123.315 147.995 122.641ZM159.325 119.897V131.857H157.09V117.969H159.149L159.325 119.897ZM165.861 122.892V123.086C165.861 123.816 165.774 124.492 165.601 125.117C165.434 125.735 165.184 126.276 164.85 126.739C164.523 127.196 164.118 127.552 163.636 127.805C163.154 128.059 162.597 128.185 161.967 128.185C161.343 128.185 160.796 128.071 160.326 127.842C159.862 127.608 159.47 127.277 159.149 126.85C158.827 126.424 158.568 125.923 158.37 125.348C158.178 124.767 158.042 124.131 157.962 123.439V122.688C158.042 121.952 158.178 121.285 158.37 120.685C158.568 120.085 158.827 119.569 159.149 119.137C159.47 118.704 159.862 118.37 160.326 118.135C160.79 117.901 161.33 117.783 161.949 117.783C162.579 117.783 163.138 117.907 163.627 118.154C164.115 118.395 164.526 118.741 164.86 119.192C165.193 119.637 165.444 120.175 165.611 120.806C165.778 121.43 165.861 122.125 165.861 122.892ZM163.627 123.086V122.892C163.627 122.428 163.583 121.998 163.497 121.603C163.41 121.201 163.274 120.849 163.089 120.546C162.903 120.243 162.665 120.008 162.375 119.841C162.091 119.668 161.748 119.582 161.346 119.582C160.95 119.582 160.61 119.65 160.326 119.786C160.042 119.915 159.804 120.098 159.612 120.333C159.421 120.568 159.272 120.843 159.167 121.158C159.062 121.467 158.988 121.804 158.945 122.168V123.967C159.019 124.412 159.145 124.82 159.325 125.191C159.504 125.562 159.757 125.858 160.085 126.081C160.419 126.297 160.845 126.405 161.364 126.405C161.766 126.405 162.109 126.319 162.394 126.146C162.678 125.973 162.91 125.735 163.089 125.432C163.274 125.123 163.41 124.767 163.497 124.366C163.583 123.964 163.627 123.537 163.627 123.086ZM167.335 123.096V122.882C167.335 122.159 167.44 121.488 167.65 120.87C167.86 120.246 168.163 119.705 168.559 119.248C168.961 118.784 169.449 118.426 170.024 118.172C170.605 117.913 171.26 117.783 171.989 117.783C172.725 117.783 173.38 117.913 173.955 118.172C174.536 118.426 175.027 118.784 175.429 119.248C175.831 119.705 176.137 120.246 176.347 120.87C176.557 121.488 176.662 122.159 176.662 122.882V123.096C176.662 123.819 176.557 124.489 176.347 125.107C176.137 125.725 175.831 126.266 175.429 126.73C175.027 127.187 174.539 127.546 173.964 127.805C173.389 128.059 172.737 128.185 172.008 128.185C171.272 128.185 170.614 128.059 170.033 127.805C169.458 127.546 168.97 127.187 168.568 126.73C168.166 126.266 167.86 125.725 167.65 125.107C167.44 124.489 167.335 123.819 167.335 123.096ZM169.569 122.882V123.096C169.569 123.547 169.616 123.973 169.709 124.375C169.801 124.777 169.946 125.129 170.144 125.432C170.342 125.735 170.595 125.973 170.905 126.146C171.214 126.319 171.581 126.405 172.008 126.405C172.422 126.405 172.78 126.319 173.083 126.146C173.392 125.973 173.646 125.735 173.843 125.432C174.041 125.129 174.187 124.777 174.279 124.375C174.378 123.973 174.428 123.547 174.428 123.096V122.882C174.428 122.437 174.378 122.017 174.279 121.621C174.187 121.22 174.038 120.864 173.834 120.555C173.636 120.246 173.383 120.005 173.074 119.832C172.771 119.653 172.41 119.563 171.989 119.563C171.569 119.563 171.204 119.653 170.895 119.832C170.592 120.005 170.342 120.246 170.144 120.555C169.946 120.864 169.801 121.22 169.709 121.621C169.616 122.017 169.569 122.437 169.569 122.882ZM180.927 117.969V128H178.683V117.969H180.927ZM178.535 115.335C178.535 114.996 178.646 114.714 178.869 114.492C179.097 114.263 179.412 114.149 179.814 114.149C180.21 114.149 180.522 114.263 180.751 114.492C180.979 114.714 181.094 114.996 181.094 115.335C181.094 115.669 180.979 115.947 180.751 116.17C180.522 116.392 180.21 116.504 179.814 116.504C179.412 116.504 179.097 116.392 178.869 116.17C178.646 115.947 178.535 115.669 178.535 115.335ZM185.59 120.11V128H183.356V117.969H185.46L185.59 120.11ZM185.191 122.613L184.468 122.604C184.475 121.893 184.573 121.241 184.765 120.648C184.963 120.055 185.235 119.545 185.581 119.118C185.933 118.692 186.353 118.364 186.842 118.135C187.33 117.901 187.874 117.783 188.474 117.783C188.956 117.783 189.391 117.851 189.781 117.987C190.176 118.117 190.513 118.33 190.791 118.627C191.076 118.923 191.292 119.31 191.44 119.786C191.589 120.255 191.663 120.833 191.663 121.519V128H189.419V121.51C189.419 121.028 189.348 120.648 189.206 120.37C189.07 120.085 188.869 119.885 188.603 119.767C188.344 119.644 188.019 119.582 187.63 119.582C187.247 119.582 186.904 119.662 186.601 119.823C186.298 119.983 186.041 120.203 185.831 120.481C185.627 120.759 185.47 121.081 185.358 121.445C185.247 121.81 185.191 122.199 185.191 122.613ZM198.542 117.969V119.6H192.887V117.969H198.542ZM194.518 115.512H196.753V125.228C196.753 125.537 196.796 125.775 196.883 125.942C196.975 126.102 197.102 126.211 197.263 126.266C197.423 126.322 197.612 126.35 197.828 126.35C197.983 126.35 198.131 126.34 198.273 126.322C198.415 126.303 198.53 126.285 198.616 126.266L198.626 127.972C198.44 128.028 198.224 128.077 197.977 128.121C197.735 128.164 197.457 128.185 197.142 128.185C196.629 128.185 196.175 128.096 195.779 127.917C195.384 127.731 195.075 127.431 194.852 127.017C194.63 126.603 194.518 126.053 194.518 125.367V115.512ZM205.894 125.284C205.894 125.061 205.839 124.86 205.727 124.681C205.616 124.495 205.403 124.329 205.088 124.18C204.779 124.032 204.321 123.896 203.715 123.772C203.184 123.655 202.696 123.516 202.251 123.355C201.812 123.188 201.435 122.987 201.119 122.752C200.804 122.518 200.56 122.239 200.387 121.918C200.214 121.597 200.127 121.226 200.127 120.806C200.127 120.398 200.217 120.011 200.396 119.647C200.576 119.282 200.832 118.961 201.166 118.682C201.5 118.404 201.904 118.185 202.38 118.024C202.862 117.863 203.4 117.783 203.994 117.783C204.834 117.783 205.554 117.925 206.154 118.21C206.759 118.488 207.223 118.868 207.544 119.35C207.866 119.826 208.027 120.364 208.027 120.963H205.792C205.792 120.697 205.724 120.45 205.588 120.221C205.458 119.987 205.261 119.798 204.995 119.656C204.729 119.508 204.395 119.433 203.994 119.433C203.61 119.433 203.292 119.495 203.039 119.619C202.791 119.736 202.606 119.891 202.482 120.082C202.365 120.274 202.306 120.484 202.306 120.713C202.306 120.88 202.337 121.031 202.399 121.167C202.467 121.297 202.578 121.417 202.733 121.529C202.887 121.634 203.097 121.733 203.363 121.825C203.635 121.918 203.975 122.008 204.383 122.094C205.149 122.255 205.808 122.462 206.358 122.715C206.914 122.963 207.34 123.284 207.637 123.68C207.934 124.069 208.082 124.563 208.082 125.163C208.082 125.608 207.986 126.016 207.795 126.387C207.609 126.751 207.337 127.07 206.979 127.342C206.62 127.608 206.191 127.815 205.69 127.963C205.196 128.111 204.639 128.185 204.021 128.185C203.113 128.185 202.343 128.025 201.713 127.703C201.082 127.376 200.603 126.959 200.276 126.452C199.954 125.939 199.794 125.407 199.794 124.857H201.954C201.979 125.271 202.093 125.602 202.297 125.849C202.507 126.09 202.767 126.266 203.076 126.378C203.391 126.483 203.715 126.535 204.049 126.535C204.451 126.535 204.788 126.483 205.06 126.378C205.332 126.266 205.539 126.118 205.681 125.933C205.823 125.741 205.894 125.525 205.894 125.284Z" fill="black"/>
<path d="M91.7374 148.227V153.382C91.5458 153.635 91.246 153.914 90.8381 154.216C90.4363 154.513 89.9017 154.77 89.2342 154.986C88.5666 155.202 87.7353 155.31 86.7402 155.31C85.8934 155.31 85.1177 155.168 84.4131 154.884C83.7085 154.593 83.0997 154.17 82.5867 153.614C82.0798 153.058 81.6874 152.381 81.4092 151.583C81.1311 150.78 80.992 149.865 80.992 148.839V147.903C80.992 146.883 81.1187 145.974 81.3721 145.177C81.6317 144.373 82.0026 143.694 82.4847 143.137C82.9668 142.581 83.5478 142.161 84.2277 141.876C84.9138 141.586 85.6895 141.441 86.5548 141.441C87.6611 141.441 88.5759 141.626 89.2991 141.997C90.0284 142.362 90.5908 142.868 90.9864 143.517C91.382 144.166 91.6323 144.908 91.7374 145.743H89.4567C89.3825 145.273 89.2372 144.852 89.0209 144.482C88.8108 144.111 88.5079 143.82 88.1123 143.61C87.7229 143.394 87.2161 143.286 86.5919 143.286C86.0541 143.286 85.5813 143.388 85.1734 143.592C84.7654 143.796 84.4255 144.095 84.1535 144.491C83.8877 144.886 83.6869 145.369 83.5509 145.937C83.4149 146.506 83.3469 147.155 83.3469 147.884V148.839C83.3469 149.581 83.4242 150.239 83.5787 150.814C83.7394 151.389 83.9681 151.874 84.2648 152.269C84.5676 152.665 84.9354 152.965 85.368 153.169C85.8007 153.367 86.289 153.465 86.8329 153.465C87.3645 153.465 87.8002 153.422 88.1401 153.336C88.4801 153.243 88.749 153.135 88.9467 153.011C89.1507 152.881 89.3083 152.758 89.4196 152.64V149.961H86.6104V148.227H91.7374ZM93.6658 150.221V150.007C93.6658 149.284 93.7709 148.613 93.981 147.995C94.1912 147.371 94.494 146.83 94.8896 146.373C95.2914 145.909 95.7797 145.551 96.3545 145.297C96.9355 145.038 97.5906 144.908 98.32 144.908C99.0555 144.908 99.7107 145.038 100.285 145.297C100.866 145.551 101.358 145.909 101.76 146.373C102.161 146.83 102.467 147.371 102.677 147.995C102.888 148.613 102.993 149.284 102.993 150.007V150.221C102.993 150.944 102.888 151.614 102.677 152.232C102.467 152.85 102.161 153.391 101.76 153.855C101.358 154.312 100.87 154.671 100.295 154.93C99.7199 155.184 99.0679 155.31 98.3385 155.31C97.603 155.31 96.9447 155.184 96.3637 154.93C95.7889 154.671 95.3006 154.312 94.8989 153.855C94.4971 153.391 94.1912 152.85 93.981 152.232C93.7709 151.614 93.6658 150.944 93.6658 150.221ZM95.9002 150.007V150.221C95.9002 150.672 95.9465 151.098 96.0392 151.5C96.132 151.902 96.2772 152.254 96.475 152.557C96.6728 152.86 96.9262 153.098 97.2352 153.271C97.5443 153.444 97.912 153.53 98.3385 153.53C98.7526 153.53 99.1111 153.444 99.414 153.271C99.723 153.098 99.9764 152.86 100.174 152.557C100.372 152.254 100.517 151.902 100.61 151.5C100.709 151.098 100.758 150.672 100.758 150.221V150.007C100.758 149.562 100.709 149.142 100.61 148.746C100.517 148.345 100.369 147.989 100.165 147.68C99.9672 147.371 99.7137 147.13 99.4047 146.957C99.1018 146.778 98.7403 146.688 98.32 146.688C97.8997 146.688 97.535 146.778 97.226 146.957C96.9231 147.13 96.6728 147.371 96.475 147.68C96.2772 147.989 96.132 148.345 96.0392 148.746C95.9465 149.142 95.9002 149.562 95.9002 150.007ZM104.439 150.221V150.007C104.439 149.284 104.544 148.613 104.754 147.995C104.964 147.371 105.267 146.83 105.663 146.373C106.065 145.909 106.553 145.551 107.128 145.297C107.709 145.038 108.364 144.908 109.093 144.908C109.829 144.908 110.484 145.038 111.059 145.297C111.64 145.551 112.131 145.909 112.533 146.373C112.935 146.83 113.24 147.371 113.451 147.995C113.661 148.613 113.766 149.284 113.766 150.007V150.221C113.766 150.944 113.661 151.614 113.451 152.232C113.24 152.85 112.935 153.391 112.533 153.855C112.131 154.312 111.643 154.671 111.068 154.93C110.493 155.184 109.841 155.31 109.112 155.31C108.376 155.31 107.718 155.184 107.137 154.93C106.562 154.671 106.074 154.312 105.672 153.855C105.27 153.391 104.964 152.85 104.754 152.232C104.544 151.614 104.439 150.944 104.439 150.221ZM106.673 150.007V150.221C106.673 150.672 106.72 151.098 106.812 151.5C106.905 151.902 107.05 152.254 107.248 152.557C107.446 152.86 107.699 153.098 108.008 153.271C108.317 153.444 108.685 153.53 109.112 153.53C109.526 153.53 109.884 153.444 110.187 153.271C110.496 153.098 110.75 152.86 110.947 152.557C111.145 152.254 111.29 151.902 111.383 151.5C111.482 151.098 111.531 150.672 111.531 150.221V150.007C111.531 149.562 111.482 149.142 111.383 148.746C111.29 148.345 111.142 147.989 110.938 147.68C110.74 147.371 110.487 147.13 110.178 146.957C109.875 146.778 109.513 146.688 109.093 146.688C108.673 146.688 108.308 146.778 107.999 146.957C107.696 147.13 107.446 147.371 107.248 147.68C107.05 147.989 106.905 148.345 106.812 148.746C106.72 149.142 106.673 149.562 106.673 150.007ZM121.758 153.048V140.884H124.001V155.125H121.971L121.758 153.048ZM115.231 150.221V150.026C115.231 149.266 115.32 148.573 115.5 147.949C115.679 147.319 115.938 146.778 116.278 146.327C116.618 145.869 117.032 145.52 117.521 145.279C118.009 145.032 118.559 144.908 119.171 144.908C119.777 144.908 120.308 145.026 120.766 145.26C121.223 145.495 121.612 145.832 121.934 146.271C122.255 146.704 122.512 147.223 122.703 147.829C122.895 148.428 123.031 149.096 123.111 149.831V150.452C123.031 151.169 122.895 151.824 122.703 152.418C122.512 153.011 122.255 153.524 121.934 153.957C121.612 154.389 121.22 154.723 120.756 154.958C120.299 155.193 119.764 155.31 119.152 155.31C118.547 155.31 118 155.184 117.511 154.93C117.029 154.677 116.618 154.321 116.278 153.864C115.938 153.407 115.679 152.869 115.5 152.251C115.32 151.627 115.231 150.95 115.231 150.221ZM117.465 150.026V150.221C117.465 150.678 117.505 151.104 117.586 151.5C117.672 151.896 117.805 152.245 117.984 152.548C118.164 152.844 118.395 153.079 118.68 153.252C118.97 153.419 119.316 153.503 119.718 153.503C120.225 153.503 120.642 153.391 120.97 153.169C121.297 152.946 121.554 152.646 121.739 152.269C121.931 151.886 122.061 151.46 122.129 150.99V149.312C122.091 148.947 122.014 148.607 121.897 148.292C121.785 147.977 121.634 147.702 121.442 147.467C121.251 147.226 121.013 147.04 120.729 146.911C120.45 146.775 120.12 146.707 119.737 146.707C119.329 146.707 118.982 146.793 118.698 146.966C118.414 147.139 118.179 147.377 117.994 147.68C117.814 147.983 117.681 148.335 117.595 148.737C117.508 149.139 117.465 149.568 117.465 150.026Z" fill="#5AD668"/>
<circle cx="6.91865" cy="130.493" r="5.425" fill="white"/>
<path d="M12.6665 144.467L31.9998 129.467L51.3332 144.467C50.0443 147.978 48.1892 151.144 45.7678 153.965C43.3447 156.789 40.5332 159.022 37.3332 160.667V146.733C37.3332 145.978 37.0781 145.344 36.5678 144.832C36.0558 144.322 35.4221 144.067 34.6665 144.067H29.3332C28.5776 144.067 27.9447 144.322 27.4345 144.832C26.9225 145.344 26.6665 145.978 26.6665 146.733V160.667C23.4665 159.022 20.6558 156.789 18.2345 153.965C15.8114 151.144 13.9554 147.978 12.6665 144.467ZM10.6665 133.6V121.067C10.6665 119.956 10.9892 118.944 11.6345 118.032C12.2781 117.122 13.1109 116.467 14.1332 116.067L30.1332 110.067C30.7554 109.845 31.3776 109.733 31.9998 109.733C32.6221 109.733 33.2443 109.845 33.8665 110.067L49.8665 116.067C50.8887 116.467 51.7225 117.122 52.3678 118.032C53.0114 118.944 53.3332 119.956 53.3332 121.067V133.6C53.3332 134.489 53.2887 135.366 53.1998 136.232C53.1109 137.1 52.9998 137.978 52.8665 138.867L35.2665 125.267C34.2887 124.511 33.1998 124.133 31.9998 124.133C30.7998 124.133 29.7109 124.511 28.7332 125.267L11.1332 138.867C10.9554 137.978 10.8327 137.1 10.7652 136.232C10.6994 135.366 10.6665 134.489 10.6665 133.6Z" fill="#5AD668"/>
<path d="M316.644 16.24H317.979C318.498 16.24 318.927 16.1503 319.267 15.9711C319.613 15.7919 319.87 15.5446 320.037 15.2294C320.204 14.9142 320.287 14.5526 320.287 14.1447C320.287 13.7182 320.21 13.3535 320.055 13.0507C319.907 12.7416 319.678 12.5037 319.369 12.3368C319.066 12.1699 318.68 12.0865 318.21 12.0865C317.815 12.0865 317.456 12.1668 317.135 12.3275C316.82 12.482 316.569 12.7045 316.384 12.995C316.199 13.2794 316.106 13.6193 316.106 14.0149H313.862C313.862 13.2979 314.051 12.6613 314.428 12.105C314.805 11.5487 315.318 11.113 315.967 10.7978C316.622 10.4764 317.357 10.3156 318.173 10.3156C319.045 10.3156 319.805 10.4609 320.454 10.7514C321.109 11.0357 321.619 11.4622 321.984 12.0308C322.349 12.5995 322.531 13.3041 322.531 14.1447C322.531 14.5279 322.441 14.9173 322.262 15.3128C322.083 15.7084 321.817 16.07 321.465 16.3976C321.112 16.719 320.673 16.9817 320.148 17.1856C319.623 17.3834 319.014 17.4823 318.322 17.4823H316.644V16.24ZM316.644 17.983V16.7592H318.322C319.113 16.7592 319.787 16.8519 320.343 17.0373C320.905 17.2227 321.363 17.4792 321.715 17.8068C322.067 18.1282 322.324 18.496 322.484 18.9101C322.651 19.3242 322.735 19.763 322.735 20.2266C322.735 20.857 322.62 21.4195 322.392 21.914C322.169 22.4023 321.851 22.8164 321.437 23.1563C321.023 23.4963 320.538 23.7528 319.981 23.9258C319.431 24.0989 318.832 24.1854 318.183 24.1854C317.602 24.1854 317.045 24.1051 316.514 23.9444C315.982 23.7837 315.506 23.5457 315.086 23.2305C314.666 22.9091 314.332 22.5104 314.085 22.0345C313.844 21.5524 313.723 20.9961 313.723 20.3657H315.958C315.958 20.7674 316.05 21.1228 316.236 21.4319C316.427 21.7347 316.693 21.9727 317.033 22.1458C317.379 22.3188 317.775 22.4053 318.22 22.4053C318.689 22.4053 319.094 22.3219 319.434 22.155C319.774 21.9881 320.034 21.7409 320.213 21.4133C320.398 21.0857 320.491 20.6902 320.491 20.2266C320.491 19.7012 320.389 19.2748 320.185 18.9472C319.981 18.6196 319.691 18.3785 319.314 18.224C318.937 18.0633 318.492 17.983 317.979 17.983H316.644ZM333.61 16.1194V18.326C333.61 19.3829 333.505 20.2853 333.295 21.0332C333.091 21.7749 332.794 22.3775 332.405 22.8411C332.015 23.3047 331.549 23.6446 331.005 23.8609C330.467 24.0773 329.864 24.1854 329.197 24.1854C328.665 24.1854 328.171 24.1174 327.713 23.9815C327.262 23.8455 326.854 23.6322 326.49 23.3417C326.125 23.0512 325.813 22.6773 325.553 22.2199C325.3 21.7564 325.102 21.2032 324.96 20.5604C324.824 19.9176 324.756 19.1728 324.756 18.326V16.1194C324.756 15.0563 324.861 14.1601 325.071 13.4308C325.281 12.6953 325.581 12.0988 325.97 11.6414C326.36 11.1779 326.823 10.841 327.361 10.6309C327.905 10.4207 328.511 10.3156 329.178 10.3156C329.716 10.3156 330.211 10.3836 330.662 10.5196C331.119 10.6494 331.527 10.8565 331.886 11.1408C332.25 11.4251 332.559 11.796 332.813 12.2533C333.072 12.7045 333.27 13.2515 333.406 13.8943C333.542 14.531 333.61 15.2727 333.61 16.1194ZM331.376 18.6412V15.7857C331.376 15.2479 331.345 14.7751 331.283 14.3672C331.221 13.9531 331.128 13.6038 331.005 13.3195C330.887 13.029 330.739 12.7942 330.56 12.6149C330.38 12.4295 330.177 12.2966 329.948 12.2163C329.719 12.1297 329.463 12.0865 329.178 12.0865C328.832 12.0865 328.523 12.1544 328.251 12.2904C327.979 12.4202 327.751 12.6304 327.565 12.9209C327.38 13.2114 327.238 13.5946 327.139 14.0705C327.046 14.5402 327 15.112 327 15.7857V18.6412C327 19.1851 327.03 19.6641 327.092 20.0783C327.154 20.4924 327.247 20.8478 327.37 21.1445C327.494 21.435 327.642 21.676 327.815 21.8676C327.995 22.053 328.199 22.189 328.427 22.2755C328.662 22.3621 328.919 22.4053 329.197 22.4053C329.549 22.4053 329.861 22.3374 330.133 22.2014C330.405 22.0654 330.634 21.8491 330.819 21.5524C331.005 21.2495 331.144 20.857 331.237 20.3749C331.329 19.8928 331.376 19.3149 331.376 18.6412ZM341.704 10.4547V24H339.469V13.1063L336.16 14.2281V12.3831L341.435 10.4547H341.704ZM351.021 17.3432V19.1233H346.117V17.3432H351.021ZM361.813 10.5011V11.7249L356.417 24H354.062L359.449 12.2812H352.458V10.5011H361.813ZM372.438 16.1194V18.326C372.438 19.3829 372.333 20.2853 372.123 21.0332C371.919 21.7749 371.622 22.3775 371.233 22.8411C370.843 23.3047 370.377 23.6446 369.833 23.8609C369.295 24.0773 368.692 24.1854 368.025 24.1854C367.493 24.1854 366.999 24.1174 366.541 23.9815C366.09 23.8455 365.682 23.6322 365.318 23.3417C364.953 23.0512 364.641 22.6773 364.381 22.2199C364.128 21.7564 363.93 21.2032 363.788 20.5604C363.652 19.9176 363.584 19.1728 363.584 18.326V16.1194C363.584 15.0563 363.689 14.1601 363.899 13.4308C364.109 12.6953 364.409 12.0988 364.798 11.6414C365.188 11.1779 365.651 10.841 366.189 10.6309C366.733 10.4207 367.339 10.3156 368.006 10.3156C368.544 10.3156 369.038 10.3836 369.49 10.5196C369.947 10.6494 370.355 10.8565 370.713 11.1408C371.078 11.4251 371.387 11.796 371.641 12.2533C371.9 12.7045 372.098 13.2515 372.234 13.8943C372.37 14.531 372.438 15.2727 372.438 16.1194ZM370.204 18.6412V15.7857C370.204 15.2479 370.173 14.7751 370.111 14.3672C370.049 13.9531 369.956 13.6038 369.833 13.3195C369.715 13.029 369.567 12.7942 369.388 12.6149C369.208 12.4295 369.004 12.2966 368.776 12.2163C368.547 12.1297 368.291 12.0865 368.006 12.0865C367.66 12.0865 367.351 12.1544 367.079 12.2904C366.807 12.4202 366.579 12.6304 366.393 12.9209C366.208 13.2114 366.065 13.5946 365.967 14.0705C365.874 14.5402 365.828 15.112 365.828 15.7857V18.6412C365.828 19.1851 365.858 19.6641 365.92 20.0783C365.982 20.4924 366.075 20.8478 366.198 21.1445C366.322 21.435 366.47 21.676 366.643 21.8676C366.823 22.053 367.027 22.189 367.255 22.2755C367.49 22.3621 367.747 22.4053 368.025 22.4053C368.377 22.4053 368.689 22.3374 368.961 22.2014C369.233 22.0654 369.462 21.8491 369.647 21.5524C369.833 21.2495 369.972 20.857 370.064 20.3749C370.157 19.8928 370.204 19.3149 370.204 18.6412ZM383.23 16.1194V18.326C383.23 19.3829 383.125 20.2853 382.914 21.0332C382.71 21.7749 382.414 22.3775 382.024 22.8411C381.635 23.3047 381.168 23.6446 380.624 23.8609C380.087 24.0773 379.484 24.1854 378.817 24.1854C378.285 24.1854 377.791 24.1174 377.333 23.9815C376.882 23.8455 376.474 23.6322 376.109 23.3417C375.745 23.0512 375.433 22.6773 375.173 22.2199C374.92 21.7564 374.722 21.2032 374.58 20.5604C374.444 19.9176 374.376 19.1728 374.376 18.326V16.1194C374.376 15.0563 374.481 14.1601 374.691 13.4308C374.901 12.6953 375.201 12.0988 375.59 11.6414C375.98 11.1779 376.443 10.841 376.981 10.6309C377.525 10.4207 378.13 10.3156 378.798 10.3156C379.336 10.3156 379.83 10.3836 380.281 10.5196C380.739 10.6494 381.147 10.8565 381.505 11.1408C381.87 11.4251 382.179 11.796 382.432 12.2533C382.692 12.7045 382.89 13.2515 383.026 13.8943C383.162 14.531 383.23 15.2727 383.23 16.1194ZM380.995 18.6412V15.7857C380.995 15.2479 380.964 14.7751 380.903 14.3672C380.841 13.9531 380.748 13.6038 380.624 13.3195C380.507 13.029 380.359 12.7942 380.179 12.6149C380 12.4295 379.796 12.2966 379.568 12.2163C379.339 12.1297 379.082 12.0865 378.798 12.0865C378.452 12.0865 378.143 12.1544 377.871 12.2904C377.599 12.4202 377.37 12.6304 377.185 12.9209C376.999 13.2114 376.857 13.5946 376.758 14.0705C376.666 14.5402 376.619 15.112 376.619 15.7857V18.6412C376.619 19.1851 376.65 19.6641 376.712 20.0783C376.774 20.4924 376.866 20.8478 376.99 21.1445C377.114 21.435 377.262 21.676 377.435 21.8676C377.614 22.053 377.818 22.189 378.047 22.2755C378.282 22.3621 378.538 22.4053 378.817 22.4053C379.169 22.4053 379.481 22.3374 379.753 22.2014C380.025 22.0654 380.254 21.8491 380.439 21.5524C380.624 21.2495 380.763 20.857 380.856 20.3749C380.949 19.8928 380.995 19.3149 380.995 18.6412ZM392.325 15.8969V27.8568H390.09V13.9685H392.149L392.325 15.8969ZM398.861 18.8915V19.0862C398.861 19.8156 398.774 20.4924 398.601 21.1166C398.434 21.7347 398.184 22.2755 397.85 22.7391C397.523 23.1965 397.118 23.5519 396.636 23.8053C396.154 24.0587 395.597 24.1854 394.967 24.1854C394.343 24.1854 393.796 24.0711 393.326 23.8424C392.862 23.6075 392.47 23.2768 392.149 22.8504C391.827 22.4239 391.568 21.9232 391.37 21.3484C391.178 20.7674 391.042 20.1308 390.962 19.4385V18.6876C391.042 17.9521 391.178 17.2845 391.37 16.685C391.568 16.0855 391.827 15.5694 392.149 15.1367C392.47 14.704 392.862 14.3703 393.326 14.1354C393.79 13.9005 394.33 13.7831 394.949 13.7831C395.579 13.7831 396.138 13.9067 396.627 14.1539C397.115 14.395 397.526 14.7411 397.86 15.1923C398.193 15.6373 398.444 16.1751 398.611 16.8055C398.778 17.4298 398.861 18.1251 398.861 18.8915ZM396.627 19.0862V18.8915C396.627 18.428 396.583 17.9984 396.497 17.6028C396.41 17.2011 396.274 16.8488 396.089 16.5459C395.903 16.2431 395.665 16.0082 395.375 15.8413C395.091 15.6682 394.748 15.5817 394.346 15.5817C393.95 15.5817 393.61 15.6497 393.326 15.7857C393.042 15.9155 392.804 16.0978 392.612 16.3327C392.421 16.5676 392.272 16.8426 392.167 17.1578C392.062 17.4669 391.988 17.8037 391.945 18.1684V19.967C392.019 20.412 392.145 20.82 392.325 21.1908C392.504 21.5617 392.757 21.8583 393.085 22.0809C393.419 22.2972 393.845 22.4053 394.364 22.4053C394.766 22.4053 395.109 22.3188 395.394 22.1458C395.678 21.9727 395.91 21.7347 396.089 21.4319C396.274 21.1228 396.41 20.7674 396.497 20.3657C396.583 19.9639 396.627 19.5374 396.627 19.0862ZM400.335 19.0955V18.8823C400.335 18.1591 400.44 17.4885 400.65 16.8704C400.86 16.2462 401.163 15.7053 401.559 15.2479C401.961 14.7844 402.449 14.4259 403.024 14.1725C403.605 13.9129 404.26 13.7831 404.989 13.7831C405.725 13.7831 406.38 13.9129 406.955 14.1725C407.536 14.4259 408.027 14.7844 408.429 15.2479C408.831 15.7053 409.137 16.2462 409.347 16.8704C409.557 17.4885 409.662 18.1591 409.662 18.8823V19.0955C409.662 19.8187 409.557 20.4893 409.347 21.1074C409.137 21.7255 408.831 22.2663 408.429 22.7298C408.027 23.1872 407.539 23.5457 406.964 23.8053C406.389 24.0587 405.737 24.1854 405.008 24.1854C404.272 24.1854 403.614 24.0587 403.033 23.8053C402.458 23.5457 401.97 23.1872 401.568 22.7298C401.166 22.2663 400.86 21.7255 400.65 21.1074C400.44 20.4893 400.335 19.8187 400.335 19.0955ZM402.569 18.8823V19.0955C402.569 19.5467 402.616 19.9732 402.709 20.3749C402.801 20.7767 402.946 21.129 403.144 21.4319C403.342 21.7347 403.595 21.9727 403.905 22.1458C404.214 22.3188 404.581 22.4053 405.008 22.4053C405.422 22.4053 405.78 22.3188 406.083 22.1458C406.392 21.9727 406.646 21.7347 406.843 21.4319C407.041 21.129 407.187 20.7767 407.279 20.3749C407.378 19.9732 407.428 19.5467 407.428 19.0955V18.8823C407.428 18.4373 407.378 18.017 407.279 17.6214C407.187 17.2196 407.038 16.8642 406.834 16.5552C406.636 16.2462 406.383 16.0051 406.074 15.832C405.771 15.6528 405.41 15.5632 404.989 15.5632C404.569 15.5632 404.204 15.6528 403.895 15.832C403.592 16.0051 403.342 16.2462 403.144 16.5552C402.946 16.8642 402.801 17.2196 402.709 17.6214C402.616 18.017 402.569 18.4373 402.569 18.8823ZM413.927 13.9685V24H411.683V13.9685H413.927ZM411.535 11.3355C411.535 10.9955 411.646 10.7143 411.869 10.4918C412.097 10.2631 412.412 10.1488 412.814 10.1488C413.21 10.1488 413.522 10.2631 413.751 10.4918C413.979 10.7143 414.094 10.9955 414.094 11.3355C414.094 11.6692 413.979 11.9474 413.751 12.1699C413.522 12.3924 413.21 12.5037 412.814 12.5037C412.412 12.5037 412.097 12.3924 411.869 12.1699C411.646 11.9474 411.535 11.6692 411.535 11.3355ZM418.59 16.1102V24H416.356V13.9685H418.46L418.59 16.1102ZM418.191 18.6134L417.468 18.6041C417.475 17.8933 417.573 17.2413 417.765 16.6479C417.963 16.0545 418.235 15.5446 418.581 15.1182C418.933 14.6917 419.353 14.3641 419.842 14.1354C420.33 13.9005 420.874 13.7831 421.474 13.7831C421.956 13.7831 422.391 13.8511 422.781 13.9871C423.176 14.1169 423.513 14.3301 423.791 14.6268C424.076 14.9235 424.292 15.3098 424.44 15.7857C424.589 16.2554 424.663 16.8333 424.663 17.5194V24H422.419V17.5101C422.419 17.028 422.348 16.6479 422.206 16.3698C422.07 16.0855 421.869 15.8846 421.603 15.7671C421.344 15.6435 421.019 15.5817 420.63 15.5817C420.247 15.5817 419.904 15.6621 419.601 15.8228C419.298 15.9835 419.041 16.2029 418.831 16.481C418.627 16.7592 418.47 17.0806 418.358 17.4452C418.247 17.8099 418.191 18.1993 418.191 18.6134ZM431.542 13.9685V15.6003H425.887V13.9685H431.542ZM427.518 11.5116H429.753V21.2279C429.753 21.5369 429.796 21.7749 429.883 21.9418C429.975 22.1025 430.102 22.2107 430.263 22.2663C430.423 22.3219 430.612 22.3497 430.828 22.3497C430.983 22.3497 431.131 22.3404 431.273 22.3219C431.415 22.3034 431.53 22.2848 431.616 22.2663L431.626 23.9722C431.44 24.0278 431.224 24.0773 430.977 24.1205C430.735 24.1638 430.457 24.1854 430.142 24.1854C429.629 24.1854 429.175 24.0958 428.779 23.9166C428.384 23.7311 428.075 23.4314 427.852 23.0172C427.63 22.6031 427.518 22.053 427.518 21.367V11.5116ZM438.894 21.2835C438.894 21.061 438.839 20.8601 438.727 20.6809C438.616 20.4955 438.403 20.3286 438.088 20.1802C437.779 20.0319 437.321 19.8959 436.715 19.7723C436.184 19.6549 435.696 19.5158 435.251 19.3551C434.812 19.1882 434.435 18.9873 434.119 18.7525C433.804 18.5176 433.56 18.2395 433.387 17.9181C433.214 17.5967 433.127 17.2258 433.127 16.8055C433.127 16.3976 433.217 16.0113 433.396 15.6466C433.576 15.2819 433.832 14.9605 434.166 14.6824C434.5 14.4043 434.904 14.1848 435.38 14.0241C435.862 13.8634 436.4 13.7831 436.994 13.7831C437.834 13.7831 438.554 13.9253 439.154 14.2096C439.759 14.4877 440.223 14.8678 440.544 15.3499C440.866 15.8259 441.027 16.3636 441.027 16.9631H438.792C438.792 16.6974 438.724 16.4501 438.588 16.2214C438.458 15.9866 438.261 15.798 437.995 15.6559C437.729 15.5075 437.395 15.4334 436.994 15.4334C436.61 15.4334 436.292 15.4952 436.039 15.6188C435.791 15.7362 435.606 15.8908 435.482 16.0824C435.365 16.274 435.306 16.4841 435.306 16.7128C435.306 16.8797 435.337 17.0311 435.399 17.1671C435.467 17.2969 435.578 17.4174 435.733 17.5287C435.887 17.6337 436.097 17.7326 436.363 17.8254C436.635 17.9181 436.975 18.0077 437.383 18.0942C438.149 18.2549 438.808 18.462 439.358 18.7154C439.914 18.9626 440.34 19.284 440.637 19.6796C440.934 20.069 441.082 20.5635 441.082 21.163C441.082 21.608 440.986 22.016 440.795 22.3868C440.609 22.7515 440.337 23.0698 439.979 23.3417C439.62 23.6075 439.191 23.8146 438.69 23.9629C438.196 24.1113 437.639 24.1854 437.021 24.1854C436.113 24.1854 435.343 24.0247 434.713 23.7033C434.082 23.3757 433.603 22.9585 433.276 22.4517C432.954 21.9387 432.794 21.4071 432.794 20.857H434.954C434.979 21.2712 435.093 21.6018 435.297 21.8491C435.507 22.0901 435.767 22.2663 436.076 22.3775C436.391 22.4826 436.715 22.5351 437.049 22.5351C437.451 22.5351 437.788 22.4826 438.06 22.3775C438.332 22.2663 438.539 22.1179 438.681 21.9325C438.823 21.7409 438.894 21.5246 438.894 21.2835Z" fill="black"/>
<path d="M319.629 39.4247L315.596 51.125H313.158L318.238 37.6261H319.796L319.629 39.4247ZM323.004 51.125L318.961 39.4247L318.785 37.6261H320.352L325.451 51.125H323.004ZM322.809 46.1185V47.9635H315.466V46.1185H322.809ZM329.54 49.3542L331.997 41.0935H334.315L330.829 51.125H329.382L329.54 49.3542ZM327.658 41.0935L330.161 49.3913L330.282 51.125H328.835L325.331 41.0935H327.658ZM339.989 51.3104C339.247 51.3104 338.576 51.1899 337.977 50.9488C337.383 50.7016 336.877 50.3586 336.456 49.9197C336.042 49.4809 335.724 48.9648 335.501 48.3714C335.279 47.7781 335.168 47.1384 335.168 46.4523V46.0814C335.168 45.2965 335.282 44.5857 335.511 43.9491C335.739 43.3124 336.058 42.7685 336.466 42.3173C336.873 41.8599 337.356 41.5107 337.912 41.2697C338.468 41.0286 339.071 40.9081 339.72 40.9081C340.437 40.9081 341.064 41.0286 341.602 41.2697C342.14 41.5107 342.585 41.8507 342.937 42.2895C343.295 42.7222 343.561 43.2383 343.734 43.8378C343.913 44.4373 344.003 45.0987 344.003 45.8219V46.7768H336.252V45.1729H341.796V44.9967C341.784 44.595 341.704 44.2179 341.555 43.8656C341.413 43.5133 341.194 43.229 340.897 43.0127C340.6 42.7963 340.205 42.6882 339.71 42.6882C339.34 42.6882 339.009 42.7685 338.718 42.9292C338.434 43.0837 338.196 43.3093 338.005 43.606C337.813 43.9027 337.665 44.2612 337.56 44.6815C337.461 45.0956 337.411 45.5623 337.411 46.0814V46.4523C337.411 46.8911 337.47 47.2991 337.587 47.6761C337.711 48.0469 337.89 48.3714 338.125 48.6496C338.36 48.9277 338.644 49.1471 338.978 49.3078C339.312 49.4624 339.692 49.5396 340.118 49.5396C340.656 49.5396 341.135 49.4315 341.555 49.2151C341.976 48.9988 342.34 48.6928 342.649 48.2973L343.827 49.4376C343.611 49.7529 343.329 50.0557 342.983 50.3462C342.637 50.6305 342.214 50.8623 341.713 51.0416C341.219 51.2208 340.644 51.3104 339.989 51.3104ZM347.99 43.0034V51.125H345.755V41.0935H347.888L347.99 43.0034ZM351.058 41.0286L351.04 43.1054C350.904 43.0807 350.756 43.0621 350.595 43.0497C350.44 43.0374 350.286 43.0312 350.131 43.0312C349.748 43.0312 349.411 43.0868 349.121 43.1981C348.83 43.3032 348.586 43.4577 348.388 43.6617C348.197 43.8594 348.048 44.1005 347.943 44.3848C347.838 44.6691 347.776 44.9874 347.758 45.3397L347.248 45.3768C347.248 44.7464 347.31 44.1623 347.433 43.6246C347.557 43.0868 347.742 42.614 347.99 42.2061C348.243 41.7981 348.558 41.4798 348.935 41.2511C349.319 41.0224 349.76 40.9081 350.261 40.9081C350.397 40.9081 350.542 40.9205 350.697 40.9452C350.858 40.9699 350.978 40.9977 351.058 41.0286ZM357.78 49.1131V44.3292C357.78 43.9707 357.715 43.6617 357.585 43.4021C357.456 43.1425 357.258 42.9416 356.992 42.7994C356.732 42.6573 356.405 42.5862 356.009 42.5862C355.645 42.5862 355.329 42.648 355.064 42.7716C354.798 42.8952 354.591 43.0621 354.442 43.2723C354.294 43.4824 354.22 43.7204 354.22 43.9861H351.995C351.995 43.5906 352.091 43.2074 352.282 42.8365C352.474 42.4657 352.752 42.135 353.117 41.8445C353.481 41.554 353.917 41.3253 354.424 41.1584C354.931 40.9915 355.499 40.9081 356.13 40.9081C356.884 40.9081 357.551 41.0348 358.132 41.2882C358.72 41.5416 359.18 41.9248 359.514 42.4378C359.854 42.9447 360.024 43.5813 360.024 44.3477V48.8072C360.024 49.2646 360.055 49.6756 360.116 50.0403C360.184 50.3988 360.28 50.7109 360.404 50.9767V51.125H358.114C358.009 50.8839 357.925 50.578 357.864 50.2071C357.808 49.8301 357.78 49.4654 357.78 49.1131ZM358.105 45.0245L358.123 46.4059H356.519C356.105 46.4059 355.74 46.4461 355.425 46.5265C355.11 46.6006 354.847 46.7119 354.637 46.8602C354.427 47.0086 354.269 47.1878 354.164 47.398C354.059 47.6081 354.007 47.8461 354.007 48.1118C354.007 48.3776 354.069 48.6218 354.192 48.8443C354.316 49.0606 354.495 49.2306 354.73 49.3542C354.971 49.4778 355.261 49.5396 355.601 49.5396C356.059 49.5396 356.457 49.4469 356.797 49.2615C357.143 49.0699 357.415 48.8381 357.613 48.5661C357.811 48.288 357.916 48.0253 357.928 47.7781L358.652 48.7701C358.577 49.0235 358.451 49.2955 358.271 49.586C358.092 49.8765 357.857 50.1546 357.567 50.4204C357.283 50.68 356.94 50.8932 356.538 51.0601C356.142 51.227 355.685 51.3104 355.166 51.3104C354.51 51.3104 353.926 51.1806 353.413 50.921C352.9 50.6553 352.499 50.2999 352.208 49.8548C351.918 49.4036 351.772 48.8937 351.772 48.3251C351.772 47.7935 351.871 47.3238 352.069 46.9159C352.273 46.5017 352.57 46.1556 352.959 45.8775C353.355 45.5993 353.837 45.3892 354.405 45.247C354.974 45.0987 355.623 45.0245 356.352 45.0245H358.105ZM368.785 41.0935H370.815V50.8469C370.815 51.7493 370.624 52.5157 370.241 53.1461C369.857 53.7766 369.323 54.2556 368.637 54.5832C367.951 54.9169 367.156 55.0838 366.254 55.0838C365.871 55.0838 365.444 55.0282 364.975 54.9169C364.511 54.8057 364.06 54.6264 363.621 54.3792C363.188 54.1382 362.827 53.8198 362.536 53.4243L363.584 52.1078C363.942 52.5342 364.338 52.8464 364.771 53.0441C365.203 53.2419 365.658 53.3408 366.133 53.3408C366.646 53.3408 367.082 53.245 367.441 53.0534C367.805 52.868 368.087 52.5929 368.284 52.2283C368.482 51.8636 368.581 51.4186 368.581 50.8932V43.365L368.785 41.0935ZM361.971 46.2205V46.0258C361.971 45.2656 362.063 44.5733 362.249 43.9491C362.434 43.3186 362.7 42.7778 363.046 42.3266C363.392 41.8692 363.813 41.52 364.307 41.2789C364.802 41.0317 365.361 40.9081 365.985 40.9081C366.634 40.9081 367.187 41.0255 367.645 41.2604C368.108 41.4953 368.495 41.8321 368.804 42.271C369.113 42.7036 369.354 43.2228 369.527 43.8285C369.706 44.4281 369.839 45.0956 369.925 45.8311V46.4523C369.845 47.1693 369.709 47.8244 369.517 48.4178C369.326 49.0112 369.072 49.5242 368.757 49.9568C368.442 50.3895 368.053 50.7232 367.589 50.9581C367.132 51.193 366.591 51.3104 365.967 51.3104C365.355 51.3104 364.802 51.1837 364.307 50.9303C363.819 50.6769 363.398 50.3215 363.046 49.8641C362.7 49.4067 362.434 48.869 362.249 48.2509C362.063 47.6267 361.971 46.9499 361.971 46.2205ZM364.205 46.0258V46.2205C364.205 46.6779 364.248 47.1044 364.335 47.4999C364.428 47.8955 364.567 48.2447 364.752 48.5476C364.944 48.8443 365.185 49.0791 365.475 49.2522C365.772 49.4191 366.121 49.5025 366.523 49.5025C367.048 49.5025 367.478 49.3913 367.812 49.1688C368.152 48.9463 368.411 48.6465 368.59 48.2695C368.776 47.8862 368.906 47.4598 368.98 46.99V45.3119C368.943 44.9473 368.865 44.6073 368.748 44.2921C368.637 43.9769 368.485 43.7018 368.294 43.467C368.102 43.2259 367.861 43.0405 367.571 42.9107C367.28 42.7747 366.937 42.7067 366.541 42.7067C366.14 42.7067 365.79 42.7932 365.494 42.9663C365.197 43.1394 364.953 43.3773 364.761 43.6802C364.576 43.9831 364.437 44.3354 364.344 44.7371C364.251 45.1389 364.205 45.5684 364.205 46.0258ZM377.556 51.3104C376.814 51.3104 376.143 51.1899 375.544 50.9488C374.95 50.7016 374.444 50.3586 374.023 49.9197C373.609 49.4809 373.291 48.9648 373.068 48.3714C372.846 47.7781 372.735 47.1384 372.735 46.4523V46.0814C372.735 45.2965 372.849 44.5857 373.078 43.9491C373.306 43.3124 373.625 42.7685 374.033 42.3173C374.441 41.8599 374.923 41.5107 375.479 41.2697C376.035 41.0286 376.638 40.9081 377.287 40.9081C378.004 40.9081 378.631 41.0286 379.169 41.2697C379.707 41.5107 380.152 41.8507 380.504 42.2895C380.862 42.7222 381.128 43.2383 381.301 43.8378C381.48 44.4373 381.57 45.0987 381.57 45.8219V46.7768H373.819V45.1729H379.364V44.9967C379.351 44.595 379.271 44.2179 379.122 43.8656C378.98 43.5133 378.761 43.229 378.464 43.0127C378.168 42.7963 377.772 42.6882 377.278 42.6882C376.907 42.6882 376.576 42.7685 376.285 42.9292C376.001 43.0837 375.763 43.3093 375.572 43.606C375.38 43.9027 375.232 44.2612 375.127 44.6815C375.028 45.0956 374.978 45.5623 374.978 46.0814V46.4523C374.978 46.8911 375.037 47.2991 375.154 47.6761C375.278 48.0469 375.457 48.3714 375.692 48.6496C375.927 48.9277 376.211 49.1471 376.545 49.3078C376.879 49.4624 377.259 49.5396 377.685 49.5396C378.223 49.5396 378.702 49.4315 379.122 49.2151C379.543 48.9988 379.907 48.6928 380.216 48.2973L381.394 49.4376C381.178 49.7529 380.896 50.0557 380.55 50.3462C380.204 50.6305 379.781 50.8623 379.28 51.0416C378.786 51.2208 378.211 51.3104 377.556 51.3104Z" fill="#EFA92E"/>
<circle cx="239.919" cy="26.4934" r="5.425" fill="white"/>
<path d="M245.667 40.4667L265 25.4667L284.333 40.4667C283.044 43.9778 281.189 47.1441 278.768 49.9654C276.345 52.7885 273.533 55.0223 270.333 56.6667V42.7334C270.333 41.9778 270.078 41.3441 269.568 40.8321C269.056 40.3218 268.422 40.0667 267.667 40.0667H262.333C261.578 40.0667 260.945 40.3218 260.435 40.8321C259.923 41.3441 259.667 41.9778 259.667 42.7334V56.6667C256.467 55.0223 253.656 52.7885 251.235 49.9654C248.811 47.1441 246.955 43.9778 245.667 40.4667ZM243.667 29.6001V17.0667C243.667 15.9556 243.989 14.9441 244.635 14.0321C245.278 13.1218 246.111 12.4667 247.133 12.0667L263.133 6.06673C263.755 5.84451 264.378 5.7334 265 5.7334C265.622 5.7334 266.244 5.84451 266.867 6.06673L282.867 12.0667C283.889 12.4667 284.723 13.1218 285.368 14.0321C286.011 14.9441 286.333 15.9556 286.333 17.0667V29.6001C286.333 30.489 286.289 31.3663 286.2 32.2321C286.111 33.0996 286 33.9778 285.867 34.8667L268.267 21.2667C267.289 20.5112 266.2 20.1334 265 20.1334C263.8 20.1334 262.711 20.5112 261.733 21.2667L244.133 34.8667C243.955 33.9778 243.833 33.0996 243.765 32.2321C243.699 31.3663 243.667 30.489 243.667 29.6001Z" fill="#EFA92E"/>
<path d="M322.985 114.501V115.725L317.589 128H315.234L320.621 116.281H313.63V114.501H322.985ZM333.61 120.119V122.326C333.61 123.383 333.505 124.285 333.295 125.033C333.091 125.775 332.794 126.378 332.405 126.841C332.015 127.305 331.549 127.645 331.005 127.861C330.467 128.077 329.864 128.185 329.197 128.185C328.665 128.185 328.171 128.117 327.713 127.981C327.262 127.845 326.854 127.632 326.49 127.342C326.125 127.051 325.813 126.677 325.553 126.22C325.3 125.756 325.102 125.203 324.96 124.56C324.824 123.918 324.756 123.173 324.756 122.326V120.119C324.756 119.056 324.861 118.16 325.071 117.431C325.281 116.695 325.581 116.099 325.97 115.641C326.36 115.178 326.823 114.841 327.361 114.631C327.905 114.421 328.511 114.316 329.178 114.316C329.716 114.316 330.211 114.384 330.662 114.52C331.119 114.649 331.527 114.856 331.886 115.141C332.25 115.425 332.559 115.796 332.813 116.253C333.072 116.705 333.27 117.252 333.406 117.894C333.542 118.531 333.61 119.273 333.61 120.119ZM331.376 122.641V119.786C331.376 119.248 331.345 118.775 331.283 118.367C331.221 117.953 331.128 117.604 331.005 117.32C330.887 117.029 330.739 116.794 330.56 116.615C330.38 116.429 330.177 116.297 329.948 116.216C329.719 116.13 329.463 116.086 329.178 116.086C328.832 116.086 328.523 116.154 328.251 116.29C327.979 116.42 327.751 116.63 327.565 116.921C327.38 117.211 327.238 117.595 327.139 118.071C327.046 118.54 327 119.112 327 119.786V122.641C327 123.185 327.03 123.664 327.092 124.078C327.154 124.492 327.247 124.848 327.37 125.144C327.494 125.435 327.642 125.676 327.815 125.868C327.995 126.053 328.199 126.189 328.427 126.276C328.662 126.362 328.919 126.405 329.197 126.405C329.549 126.405 329.861 126.337 330.133 126.201C330.405 126.065 330.634 125.849 330.819 125.552C331.005 125.25 331.144 124.857 331.237 124.375C331.329 123.893 331.376 123.315 331.376 122.641ZM341.704 114.455V128H339.469V117.106L336.16 118.228V116.383L341.435 114.455H341.704ZM351.021 121.343V123.123H346.117V121.343H351.021ZM354.646 126.238H354.832C355.685 126.238 356.396 126.127 356.964 125.905C357.539 125.676 357.996 125.361 358.336 124.959C358.676 124.557 358.92 124.084 359.069 123.541C359.217 122.997 359.291 122.406 359.291 121.77V119.443C359.291 118.893 359.233 118.41 359.115 117.996C359.004 117.576 358.843 117.227 358.633 116.949C358.429 116.664 358.191 116.451 357.919 116.309C357.653 116.167 357.366 116.096 357.057 116.096C356.717 116.096 356.411 116.173 356.139 116.328C355.873 116.476 355.648 116.683 355.462 116.949C355.283 117.208 355.144 117.514 355.045 117.867C354.952 118.213 354.906 118.584 354.906 118.979C354.906 119.35 354.949 119.708 355.036 120.055C355.129 120.394 355.264 120.697 355.444 120.963C355.623 121.229 355.849 121.439 356.121 121.594C356.392 121.748 356.711 121.825 357.075 121.825C357.422 121.825 357.74 121.76 358.03 121.631C358.321 121.495 358.574 121.312 358.791 121.084C359.007 120.855 359.177 120.598 359.301 120.314C359.424 120.03 359.492 119.739 359.505 119.443L360.357 119.702C360.357 120.172 360.259 120.636 360.061 121.093C359.869 121.544 359.6 121.958 359.254 122.335C358.914 122.706 358.516 123.003 358.058 123.225C357.607 123.448 357.116 123.559 356.584 123.559C355.941 123.559 355.373 123.439 354.878 123.197C354.39 122.95 353.982 122.616 353.654 122.196C353.333 121.776 353.092 121.294 352.931 120.75C352.771 120.206 352.69 119.634 352.69 119.035C352.69 118.386 352.789 117.777 352.987 117.208C353.185 116.64 353.472 116.139 353.849 115.706C354.226 115.267 354.683 114.928 355.221 114.686C355.765 114.439 356.38 114.316 357.066 114.316C357.796 114.316 358.435 114.458 358.985 114.742C359.535 115.026 359.999 115.419 360.376 115.92C360.753 116.42 361.037 117.001 361.229 117.663C361.421 118.324 361.516 119.035 361.516 119.795V120.583C361.516 121.38 361.445 122.15 361.303 122.892C361.161 123.627 360.929 124.31 360.608 124.94C360.293 125.565 359.875 126.115 359.356 126.591C358.843 127.061 358.213 127.428 357.465 127.694C356.723 127.954 355.852 128.083 354.85 128.083H354.646V126.238ZM365.438 126.238H365.624C366.477 126.238 367.187 126.127 367.756 125.905C368.331 125.676 368.788 125.361 369.128 124.959C369.468 124.557 369.712 124.084 369.861 123.541C370.009 122.997 370.083 122.406 370.083 121.77V119.443C370.083 118.893 370.024 118.41 369.907 117.996C369.796 117.576 369.635 117.227 369.425 116.949C369.221 116.664 368.983 116.451 368.711 116.309C368.445 116.167 368.158 116.096 367.849 116.096C367.509 116.096 367.203 116.173 366.931 116.328C366.665 116.476 366.439 116.683 366.254 116.949C366.075 117.208 365.936 117.514 365.837 117.867C365.744 118.213 365.698 118.584 365.698 118.979C365.698 119.35 365.741 119.708 365.828 120.055C365.92 120.394 366.056 120.697 366.235 120.963C366.415 121.229 366.64 121.439 366.912 121.594C367.184 121.748 367.503 121.825 367.867 121.825C368.213 121.825 368.532 121.76 368.822 121.631C369.113 121.495 369.366 121.312 369.582 121.084C369.799 120.855 369.969 120.598 370.092 120.314C370.216 120.03 370.284 119.739 370.296 119.443L371.149 119.702C371.149 120.172 371.05 120.636 370.853 121.093C370.661 121.544 370.392 121.958 370.046 122.335C369.706 122.706 369.307 123.003 368.85 123.225C368.399 123.448 367.907 123.559 367.376 123.559C366.733 123.559 366.164 123.439 365.67 123.197C365.182 122.95 364.774 122.616 364.446 122.196C364.125 121.776 363.884 121.294 363.723 120.75C363.562 120.206 363.482 119.634 363.482 119.035C363.482 118.386 363.581 117.777 363.779 117.208C363.976 116.64 364.264 116.139 364.641 115.706C365.018 115.267 365.475 114.928 366.013 114.686C366.557 114.439 367.172 114.316 367.858 114.316C368.587 114.316 369.227 114.458 369.777 114.742C370.327 115.026 370.791 115.419 371.168 115.92C371.545 116.42 371.829 117.001 372.021 117.663C372.212 118.324 372.308 119.035 372.308 119.795V120.583C372.308 121.38 372.237 122.15 372.095 122.892C371.953 123.627 371.721 124.31 371.4 124.94C371.084 125.565 370.667 126.115 370.148 126.591C369.635 127.061 369.004 127.428 368.257 127.694C367.515 127.954 366.643 128.083 365.642 128.083H365.438V126.238ZM376.23 126.238H376.415C377.268 126.238 377.979 126.127 378.548 125.905C379.122 125.676 379.58 125.361 379.92 124.959C380.26 124.557 380.504 124.084 380.652 123.541C380.801 122.997 380.875 122.406 380.875 121.77V119.443C380.875 118.893 380.816 118.41 380.699 117.996C380.587 117.576 380.427 117.227 380.216 116.949C380.013 116.664 379.775 116.451 379.503 116.309C379.237 116.167 378.949 116.096 378.64 116.096C378.3 116.096 377.994 116.173 377.723 116.328C377.457 116.476 377.231 116.683 377.046 116.949C376.866 117.208 376.727 117.514 376.629 117.867C376.536 118.213 376.489 118.584 376.489 118.979C376.489 119.35 376.533 119.708 376.619 120.055C376.712 120.394 376.848 120.697 377.027 120.963C377.206 121.229 377.432 121.439 377.704 121.594C377.976 121.748 378.294 121.825 378.659 121.825C379.005 121.825 379.323 121.76 379.614 121.631C379.904 121.495 380.158 121.312 380.374 121.084C380.59 120.855 380.76 120.598 380.884 120.314C381.008 120.03 381.076 119.739 381.088 119.443L381.941 119.702C381.941 120.172 381.842 120.636 381.644 121.093C381.453 121.544 381.184 121.958 380.838 122.335C380.498 122.706 380.099 123.003 379.642 123.225C379.19 123.448 378.699 123.559 378.168 123.559C377.525 123.559 376.956 123.439 376.462 123.197C375.973 122.95 375.565 122.616 375.238 122.196C374.916 121.776 374.675 121.294 374.515 120.75C374.354 120.206 374.274 119.634 374.274 119.035C374.274 118.386 374.373 117.777 374.57 117.208C374.768 116.64 375.056 116.139 375.433 115.706C375.81 115.267 376.267 114.928 376.805 114.686C377.349 114.439 377.964 114.316 378.65 114.316C379.379 114.316 380.019 114.458 380.569 114.742C381.119 115.026 381.582 115.419 381.959 115.92C382.337 116.42 382.621 117.001 382.812 117.663C383.004 118.324 383.1 119.035 383.1 119.795V120.583C383.1 121.38 383.029 122.15 382.887 122.892C382.744 123.627 382.513 124.31 382.191 124.94C381.876 125.565 381.459 126.115 380.94 126.591C380.427 127.061 379.796 127.428 379.048 127.694C378.307 127.954 377.435 128.083 376.434 128.083H376.23V126.238ZM392.325 119.897V131.857H390.09V117.969H392.149L392.325 119.897ZM398.861 122.892V123.086C398.861 123.816 398.774 124.492 398.601 125.117C398.434 125.735 398.184 126.276 397.85 126.739C397.523 127.196 397.118 127.552 396.636 127.805C396.154 128.059 395.597 128.185 394.967 128.185C394.343 128.185 393.796 128.071 393.326 127.842C392.862 127.608 392.47 127.277 392.149 126.85C391.827 126.424 391.568 125.923 391.37 125.348C391.178 124.767 391.042 124.131 390.962 123.439V122.688C391.042 121.952 391.178 121.285 391.37 120.685C391.568 120.085 391.827 119.569 392.149 119.137C392.47 118.704 392.862 118.37 393.326 118.135C393.79 117.901 394.33 117.783 394.949 117.783C395.579 117.783 396.138 117.907 396.627 118.154C397.115 118.395 397.526 118.741 397.86 119.192C398.193 119.637 398.444 120.175 398.611 120.806C398.778 121.43 398.861 122.125 398.861 122.892ZM396.627 123.086V122.892C396.627 122.428 396.583 121.998 396.497 121.603C396.41 121.201 396.274 120.849 396.089 120.546C395.903 120.243 395.665 120.008 395.375 119.841C395.091 119.668 394.748 119.582 394.346 119.582C393.95 119.582 393.61 119.65 393.326 119.786C393.042 119.915 392.804 120.098 392.612 120.333C392.421 120.568 392.272 120.843 392.167 121.158C392.062 121.467 391.988 121.804 391.945 122.168V123.967C392.019 124.412 392.145 124.82 392.325 125.191C392.504 125.562 392.757 125.858 393.085 126.081C393.419 126.297 393.845 126.405 394.364 126.405C394.766 126.405 395.109 126.319 395.394 126.146C395.678 125.973 395.91 125.735 396.089 125.432C396.274 125.123 396.41 124.767 396.497 124.366C396.583 123.964 396.627 123.537 396.627 123.086ZM400.335 123.096V122.882C400.335 122.159 400.44 121.488 400.65 120.87C400.86 120.246 401.163 119.705 401.559 119.248C401.961 118.784 402.449 118.426 403.024 118.172C403.605 117.913 404.26 117.783 404.989 117.783C405.725 117.783 406.38 117.913 406.955 118.172C407.536 118.426 408.027 118.784 408.429 119.248C408.831 119.705 409.137 120.246 409.347 120.87C409.557 121.488 409.662 122.159 409.662 122.882V123.096C409.662 123.819 409.557 124.489 409.347 125.107C409.137 125.725 408.831 126.266 408.429 126.73C408.027 127.187 407.539 127.546 406.964 127.805C406.389 128.059 405.737 128.185 405.008 128.185C404.272 128.185 403.614 128.059 403.033 127.805C402.458 127.546 401.97 127.187 401.568 126.73C401.166 126.266 400.86 125.725 400.65 125.107C400.44 124.489 400.335 123.819 400.335 123.096ZM402.569 122.882V123.096C402.569 123.547 402.616 123.973 402.709 124.375C402.801 124.777 402.946 125.129 403.144 125.432C403.342 125.735 403.595 125.973 403.905 126.146C404.214 126.319 404.581 126.405 405.008 126.405C405.422 126.405 405.78 126.319 406.083 126.146C406.392 125.973 406.646 125.735 406.843 125.432C407.041 125.129 407.187 124.777 407.279 124.375C407.378 123.973 407.428 123.547 407.428 123.096V122.882C407.428 122.437 407.378 122.017 407.279 121.621C407.187 121.22 407.038 120.864 406.834 120.555C406.636 120.246 406.383 120.005 406.074 119.832C405.771 119.653 405.41 119.563 404.989 119.563C404.569 119.563 404.204 119.653 403.895 119.832C403.592 120.005 403.342 120.246 403.144 120.555C402.946 120.864 402.801 121.22 402.709 121.621C402.616 122.017 402.569 122.437 402.569 122.882ZM413.927 117.969V128H411.683V117.969H413.927ZM411.535 115.335C411.535 114.996 411.646 114.714 411.869 114.492C412.097 114.263 412.412 114.149 412.814 114.149C413.21 114.149 413.522 114.263 413.751 114.492C413.979 114.714 414.094 114.996 414.094 115.335C414.094 115.669 413.979 115.947 413.751 116.17C413.522 116.392 413.21 116.504 412.814 116.504C412.412 116.504 412.097 116.392 411.869 116.17C411.646 115.947 411.535 115.669 411.535 115.335ZM418.59 120.11V128H416.356V117.969H418.46L418.59 120.11ZM418.191 122.613L417.468 122.604C417.475 121.893 417.573 121.241 417.765 120.648C417.963 120.055 418.235 119.545 418.581 119.118C418.933 118.692 419.353 118.364 419.842 118.135C420.33 117.901 420.874 117.783 421.474 117.783C421.956 117.783 422.391 117.851 422.781 117.987C423.176 118.117 423.513 118.33 423.791 118.627C424.076 118.923 424.292 119.31 424.44 119.786C424.589 120.255 424.663 120.833 424.663 121.519V128H422.419V121.51C422.419 121.028 422.348 120.648 422.206 120.37C422.07 120.085 421.869 119.885 421.603 119.767C421.344 119.644 421.019 119.582 420.63 119.582C420.247 119.582 419.904 119.662 419.601 119.823C419.298 119.983 419.041 120.203 418.831 120.481C418.627 120.759 418.47 121.081 418.358 121.445C418.247 121.81 418.191 122.199 418.191 122.613ZM431.542 117.969V119.6H425.887V117.969H431.542ZM427.518 115.512H429.753V125.228C429.753 125.537 429.796 125.775 429.883 125.942C429.975 126.102 430.102 126.211 430.263 126.266C430.423 126.322 430.612 126.35 430.828 126.35C430.983 126.35 431.131 126.34 431.273 126.322C431.415 126.303 431.53 126.285 431.616 126.266L431.626 127.972C431.44 128.028 431.224 128.077 430.977 128.121C430.735 128.164 430.457 128.185 430.142 128.185C429.629 128.185 429.175 128.096 428.779 127.917C428.384 127.731 428.075 127.431 427.852 127.017C427.63 126.603 427.518 126.053 427.518 125.367V115.512ZM438.894 125.284C438.894 125.061 438.839 124.86 438.727 124.681C438.616 124.495 438.403 124.329 438.088 124.18C437.779 124.032 437.321 123.896 436.715 123.772C436.184 123.655 435.696 123.516 435.251 123.355C434.812 123.188 434.435 122.987 434.119 122.752C433.804 122.518 433.56 122.239 433.387 121.918C433.214 121.597 433.127 121.226 433.127 120.806C433.127 120.398 433.217 120.011 433.396 119.647C433.576 119.282 433.832 118.961 434.166 118.682C434.5 118.404 434.904 118.185 435.38 118.024C435.862 117.863 436.4 117.783 436.994 117.783C437.834 117.783 438.554 117.925 439.154 118.21C439.759 118.488 440.223 118.868 440.544 119.35C440.866 119.826 441.027 120.364 441.027 120.963H438.792C438.792 120.697 438.724 120.45 438.588 120.221C438.458 119.987 438.261 119.798 437.995 119.656C437.729 119.508 437.395 119.433 436.994 119.433C436.61 119.433 436.292 119.495 436.039 119.619C435.791 119.736 435.606 119.891 435.482 120.082C435.365 120.274 435.306 120.484 435.306 120.713C435.306 120.88 435.337 121.031 435.399 121.167C435.467 121.297 435.578 121.417 435.733 121.529C435.887 121.634 436.097 121.733 436.363 121.825C436.635 121.918 436.975 122.008 437.383 122.094C438.149 122.255 438.808 122.462 439.358 122.715C439.914 122.963 440.34 123.284 440.637 123.68C440.934 124.069 441.082 124.563 441.082 125.163C441.082 125.608 440.986 126.016 440.795 126.387C440.609 126.751 440.337 127.07 439.979 127.342C439.62 127.608 439.191 127.815 438.69 127.963C438.196 128.111 437.639 128.185 437.021 128.185C436.113 128.185 435.343 128.025 434.713 127.703C434.082 127.376 433.603 126.959 433.276 126.452C432.954 125.939 432.794 125.407 432.794 124.857H434.954C434.979 125.271 435.093 125.602 435.297 125.849C435.507 126.09 435.767 126.266 436.076 126.378C436.391 126.483 436.715 126.535 437.049 126.535C437.451 126.535 437.788 126.483 438.06 126.378C438.332 126.266 438.539 126.118 438.681 125.933C438.823 125.741 438.894 125.525 438.894 125.284Z" fill="black"/>
<path d="M323.208 153.28V155.125H316.041V153.28H323.208ZM316.699 141.626V155.125H314.372V141.626H316.699ZM322.271 147.263V149.08H316.041V147.263H322.271ZM323.161 141.626V143.48H316.041V141.626H323.161ZM326.592 145.094L328.502 148.422L330.448 145.094H332.905L329.864 150.017L333.026 155.125H330.569L328.529 151.658L326.49 155.125H324.024L327.176 150.017L324.144 145.094H326.592ZM338.348 153.53C338.712 153.53 339.04 153.459 339.33 153.317C339.627 153.169 339.865 152.965 340.044 152.705C340.23 152.446 340.332 152.146 340.35 151.806H342.455C342.442 152.455 342.251 153.045 341.88 153.577C341.509 154.108 341.018 154.532 340.406 154.847C339.794 155.156 339.117 155.31 338.375 155.31C337.609 155.31 336.941 155.181 336.373 154.921C335.804 154.655 335.331 154.291 334.954 153.827C334.577 153.363 334.293 152.829 334.101 152.223C333.916 151.617 333.823 150.968 333.823 150.276V149.952C333.823 149.259 333.916 148.61 334.101 148.005C334.293 147.393 334.577 146.855 334.954 146.391C335.331 145.928 335.804 145.566 336.373 145.307C336.941 145.041 337.606 144.908 338.366 144.908C339.17 144.908 339.874 145.069 340.48 145.39C341.086 145.705 341.562 146.147 341.908 146.716C342.26 147.278 342.442 147.934 342.455 148.681H340.35C340.332 148.311 340.239 147.977 340.072 147.68C339.911 147.377 339.683 147.136 339.386 146.957C339.095 146.778 338.746 146.688 338.338 146.688C337.887 146.688 337.513 146.781 337.216 146.966C336.92 147.146 336.688 147.393 336.521 147.708C336.354 148.017 336.234 148.366 336.16 148.756C336.092 149.139 336.058 149.538 336.058 149.952V150.276C336.058 150.69 336.092 151.092 336.16 151.481C336.228 151.871 336.345 152.22 336.512 152.529C336.685 152.832 336.92 153.076 337.216 153.261C337.513 153.441 337.89 153.53 338.348 153.53ZM348.592 155.31C347.851 155.31 347.18 155.19 346.58 154.949C345.987 154.702 345.48 154.359 345.06 153.92C344.646 153.481 344.328 152.965 344.105 152.371C343.883 151.778 343.771 151.138 343.771 150.452V150.081C343.771 149.296 343.886 148.586 344.114 147.949C344.343 147.312 344.661 146.769 345.069 146.317C345.477 145.86 345.959 145.511 346.516 145.27C347.072 145.029 347.674 144.908 348.323 144.908C349.04 144.908 349.668 145.029 350.205 145.27C350.743 145.511 351.188 145.851 351.541 146.29C351.899 146.722 352.165 147.238 352.338 147.838C352.517 148.437 352.607 149.099 352.607 149.822V150.777H344.856V149.173H350.4V148.997C350.388 148.595 350.307 148.218 350.159 147.866C350.017 147.513 349.798 147.229 349.501 147.013C349.204 146.796 348.809 146.688 348.314 146.688C347.943 146.688 347.613 146.769 347.322 146.929C347.038 147.084 346.8 147.309 346.608 147.606C346.417 147.903 346.268 148.261 346.163 148.681C346.064 149.096 346.015 149.562 346.015 150.081V150.452C346.015 150.891 346.074 151.299 346.191 151.676C346.315 152.047 346.494 152.371 346.729 152.65C346.964 152.928 347.248 153.147 347.582 153.308C347.915 153.462 348.296 153.54 348.722 153.54C349.26 153.54 349.739 153.431 350.159 153.215C350.579 152.999 350.944 152.693 351.253 152.297L352.431 153.438C352.214 153.753 351.933 154.056 351.587 154.346C351.241 154.631 350.817 154.862 350.317 155.042C349.822 155.221 349.247 155.31 348.592 155.31ZM356.742 140.884V155.125H354.498V140.884H356.742ZM361.581 140.884V155.125H359.338V140.884H361.581ZM368.451 155.31C367.71 155.31 367.039 155.19 366.439 154.949C365.846 154.702 365.339 154.359 364.919 153.92C364.505 153.481 364.187 152.965 363.964 152.371C363.742 151.778 363.63 151.138 363.63 150.452V150.081C363.63 149.296 363.745 148.586 363.973 147.949C364.202 147.312 364.52 146.769 364.928 146.317C365.336 145.86 365.818 145.511 366.375 145.27C366.931 145.029 367.533 144.908 368.182 144.908C368.899 144.908 369.527 145.029 370.064 145.27C370.602 145.511 371.047 145.851 371.4 146.29C371.758 146.722 372.024 147.238 372.197 147.838C372.376 148.437 372.466 149.099 372.466 149.822V150.777H364.715V149.173H370.259V148.997C370.247 148.595 370.166 148.218 370.018 147.866C369.876 147.513 369.657 147.229 369.36 147.013C369.063 146.796 368.668 146.688 368.173 146.688C367.802 146.688 367.472 146.769 367.181 146.929C366.897 147.084 366.659 147.309 366.467 147.606C366.276 147.903 366.127 148.261 366.022 148.681C365.923 149.096 365.874 149.562 365.874 150.081V150.452C365.874 150.891 365.933 151.299 366.05 151.676C366.174 152.047 366.353 152.371 366.588 152.65C366.823 152.928 367.107 153.147 367.441 153.308C367.774 153.462 368.155 153.54 368.581 153.54C369.119 153.54 369.598 153.431 370.018 153.215C370.438 152.999 370.803 152.693 371.112 152.297L372.29 153.438C372.073 153.753 371.792 154.056 371.446 154.346C371.1 154.631 370.676 154.862 370.176 155.042C369.681 155.221 369.106 155.31 368.451 155.31ZM376.425 147.235V155.125H374.19V145.094H376.295L376.425 147.235ZM376.026 149.738L375.303 149.729C375.309 149.018 375.408 148.366 375.599 147.773C375.797 147.18 376.069 146.67 376.415 146.243C376.768 145.817 377.188 145.489 377.676 145.26C378.164 145.026 378.708 144.908 379.308 144.908C379.79 144.908 380.226 144.976 380.615 145.112C381.011 145.242 381.348 145.455 381.626 145.752C381.91 146.048 382.126 146.435 382.275 146.911C382.423 147.38 382.497 147.958 382.497 148.644V155.125H380.254V148.635C380.254 148.153 380.183 147.773 380.04 147.495C379.904 147.21 379.703 147.01 379.438 146.892C379.178 146.769 378.854 146.707 378.464 146.707C378.081 146.707 377.738 146.787 377.435 146.948C377.132 147.108 376.876 147.328 376.666 147.606C376.462 147.884 376.304 148.206 376.193 148.57C376.082 148.935 376.026 149.324 376.026 149.738ZM389.376 145.094V146.725H383.721V145.094H389.376ZM385.353 142.637H387.587V152.353C387.587 152.662 387.63 152.9 387.717 153.067C387.81 153.227 387.936 153.336 388.097 153.391C388.258 153.447 388.446 153.475 388.663 153.475C388.817 153.475 388.965 153.465 389.108 153.447C389.25 153.428 389.364 153.41 389.451 153.391L389.46 155.097C389.274 155.153 389.058 155.202 388.811 155.246C388.57 155.289 388.292 155.31 387.977 155.31C387.464 155.31 387.009 155.221 386.614 155.042C386.218 154.856 385.909 154.556 385.687 154.142C385.464 153.728 385.353 153.178 385.353 152.492V142.637Z" fill="#388058"/>
<circle cx="239.919" cy="130.493" r="5.425" fill="white"/>
<path d="M245.667 144.467L265 129.467L284.333 144.467C283.044 147.978 281.189 151.144 278.768 153.965C276.345 156.789 273.533 159.022 270.333 160.667V146.733C270.333 145.978 270.078 145.344 269.568 144.832C269.056 144.322 268.422 144.067 267.667 144.067H262.333C261.578 144.067 260.945 144.322 260.435 144.832C259.923 145.344 259.667 145.978 259.667 146.733V160.667C256.467 159.022 253.656 156.789 251.235 153.965C248.811 151.144 246.955 147.978 245.667 144.467ZM243.667 133.6V121.067C243.667 119.956 243.989 118.944 244.635 118.032C245.278 117.122 246.111 116.467 247.133 116.067L263.133 110.067C263.755 109.845 264.378 109.733 265 109.733C265.622 109.733 266.244 109.845 266.867 110.067L282.867 116.067C283.889 116.467 284.723 117.122 285.368 118.032C286.011 118.944 286.333 119.956 286.333 121.067V133.6C286.333 134.489 286.289 135.366 286.2 136.232C286.111 137.1 286 137.978 285.867 138.867L268.267 125.267C267.289 124.511 266.2 124.133 265 124.133C263.8 124.133 262.711 124.511 261.733 125.267L244.133 138.867C243.955 137.978 243.833 137.1 243.765 136.232C243.699 135.366 243.667 134.489 243.667 133.6Z" fill="#388058"/>
</svg>
