<svg width="40" height="41" viewBox="0 0 40 41" fill="none" xmlns="http://www.w3.org/2000/svg">
<circle cx="20" cy="20.3242" r="20" fill="white"/>
<path d="M17.6914 18.1406H19.6133C20.1055 18.1406 20.5078 18.0547 20.8203 17.8828C21.1406 17.7031 21.3789 17.4531 21.5352 17.1328C21.6914 16.8047 21.7695 16.418 21.7695 15.9727C21.7695 15.6289 21.6953 15.3125 21.5469 15.0234C21.4062 14.7344 21.1875 14.5039 20.8906 14.332C20.5938 14.1523 20.2148 14.0625 19.7539 14.0625C19.4414 14.0625 19.1367 14.1289 18.8398 14.2617C18.543 14.3867 18.2969 14.5664 18.1016 14.8008C17.9141 15.0352 17.8203 15.3203 17.8203 15.6562H13.8594C13.8594 14.6875 14.125 13.8594 14.6562 13.1719C15.1953 12.4766 15.9023 11.9453 16.7773 11.5781C17.6602 11.2031 18.6094 11.0156 19.625 11.0156C20.8359 11.0156 21.8984 11.2031 22.8125 11.5781C23.7266 11.9453 24.4375 12.4922 24.9453 13.2188C25.4609 13.9375 25.7188 14.8281 25.7188 15.8906C25.7188 16.4766 25.582 17.0273 25.3086 17.543C25.0352 18.0586 24.6523 18.5117 24.1602 18.9023C23.668 19.293 23.0898 19.6016 22.4258 19.8281C21.7695 20.0469 21.0508 20.1562 20.2695 20.1562H17.6914V18.1406ZM17.6914 21.082V19.1133H20.2695C21.1211 19.1133 21.8984 19.2109 22.6016 19.4062C23.3047 19.5938 23.9102 19.875 24.418 20.25C24.9258 20.625 25.3164 21.0898 25.5898 21.6445C25.8633 22.1914 26 22.8203 26 23.5312C26 24.3281 25.8398 25.0391 25.5195 25.6641C25.1992 26.2891 24.75 26.8164 24.1719 27.2461C23.5938 27.6758 22.918 28.0039 22.1445 28.2305C21.3711 28.4492 20.5312 28.5586 19.625 28.5586C18.9141 28.5586 18.2031 28.4648 17.4922 28.2773C16.7812 28.082 16.1328 27.7852 15.5469 27.3867C14.9609 26.9805 14.4883 26.4648 14.1289 25.8398C13.7773 25.207 13.6016 24.4531 13.6016 23.5781H17.5625C17.5625 23.9375 17.6602 24.2656 17.8555 24.5625C18.0586 24.8516 18.3281 25.082 18.6641 25.2539C19 25.4258 19.3633 25.5117 19.7539 25.5117C20.2383 25.5117 20.6484 25.4219 20.9844 25.2422C21.3281 25.0547 21.5898 24.8047 21.7695 24.4922C21.9492 24.1797 22.0391 23.832 22.0391 23.4492C22.0391 22.8711 21.9414 22.4102 21.7461 22.0664C21.5586 21.7227 21.2812 21.4727 20.9141 21.3164C20.5547 21.1602 20.1211 21.082 19.6133 21.082H17.6914Z" fill="#005FB9"/>
</svg>
