<svg width="40" height="41" viewBox="0 0 40 41" fill="none" xmlns="http://www.w3.org/2000/svg">
<circle cx="20" cy="20.3242" r="20" fill="white"/>
<path d="M26 25.2773V28.3242H14.0938V25.7461L19.5781 19.9805C20.0625 19.4258 20.4531 18.9297 20.75 18.4922C21.0469 18.0469 21.2617 17.6445 21.3945 17.2852C21.5352 16.9258 21.6055 16.6016 21.6055 16.3125C21.6055 15.8203 21.5312 15.4102 21.3828 15.082C21.2422 14.7461 21.0312 14.4922 20.75 14.3203C20.4766 14.1484 20.1367 14.0625 19.7305 14.0625C19.3242 14.0625 18.9688 14.1797 18.6641 14.4141C18.3594 14.6484 18.1211 14.9688 17.9492 15.375C17.7852 15.7812 17.7031 16.2383 17.7031 16.7461H13.7422C13.7422 15.6992 13.9961 14.7422 14.5039 13.875C15.0195 13.0078 15.7344 12.3164 16.6484 11.8008C17.5625 11.2773 18.6211 11.0156 19.8242 11.0156C21.082 11.0156 22.1367 11.2109 22.9883 11.6016C23.8398 11.9922 24.4805 12.5586 24.9102 13.3008C25.3477 14.0352 25.5664 14.9219 25.5664 15.9609C25.5664 16.5547 25.4727 17.125 25.2852 17.6719C25.0977 18.2188 24.8281 18.7617 24.4766 19.3008C24.125 19.832 23.6953 20.3789 23.1875 20.9414C22.6875 21.5039 22.1172 22.1016 21.4766 22.7344L19.2734 25.2773H26Z" fill="#005FB9"/>
</svg>
