<svg width="80" height="49" viewBox="0 0 80 49" fill="none" xmlns="http://www.w3.org/2000/svg">
<path d="M51.4286 11.4286C51.4286 17.7404 46.3118 22.8571 40 22.8571C33.6882 22.8571 28.5714 17.7404 28.5714 11.4286C28.5714 5.11675 33.6882 0 40 0C46.3118 0 51.4286 5.11675 51.4286 11.4286Z" fill="#7F96FF"/>
<path d="M6.67703 48.7051C5.37066 48.7051 4.2175 48.4229 3.21755 47.8584C2.21761 47.2778 1.42734 46.4875 0.846725 45.4876C0.282242 44.4715 0 43.3103 0 42.0039C0 40.6814 0.282242 39.5202 0.846725 38.5202C1.42734 37.5042 2.21761 36.7139 3.21755 36.1494C4.2175 35.5688 5.37066 35.2785 6.67703 35.2785C7.96728 35.2785 9.11237 35.5688 10.1123 36.1494C11.1123 36.7139 11.8945 37.5042 12.459 38.5202C13.0396 39.5202 13.3299 40.6814 13.3299 42.0039C13.3299 43.3103 13.0476 44.4715 12.4831 45.4876C11.9187 46.4875 11.1364 47.2778 10.1365 47.8584C9.13657 48.4229 7.98341 48.7051 6.67703 48.7051ZM6.67703 46.5278C7.51569 46.5278 8.25758 46.3343 8.90271 45.9472C9.54783 45.5601 10.0478 45.0279 10.4026 44.3505C10.7736 43.6731 10.959 42.8909 10.959 42.0039C10.959 41.1168 10.7736 40.3346 10.4026 39.6573C10.0478 38.9637 9.54783 38.4235 8.90271 38.0364C8.25758 37.6493 7.51569 37.4558 6.67703 37.4558C5.83837 37.4558 5.09648 37.6493 4.45135 38.0364C3.80623 38.4235 3.2982 38.9637 2.92725 39.6573C2.5563 40.3346 2.37083 41.1168 2.37083 42.0039C2.37083 42.8909 2.5563 43.6731 2.92725 44.3505C3.2982 45.0279 3.80623 45.5601 4.45135 45.9472C5.09648 46.3343 5.83837 46.5278 6.67703 46.5278Z" fill="#7F96FF"/>
<path d="M23.6552 48.7051C22.3972 48.7051 21.2682 48.4148 20.2683 47.8342C19.2683 47.2375 18.4781 46.4311 17.8975 45.415C17.3168 44.3989 17.0185 43.2538 17.0023 41.9797V30.9481C17.0023 30.5771 17.1152 30.2788 17.341 30.053C17.583 29.8272 17.8813 29.7143 18.2361 29.7143C18.6071 29.7143 18.9055 29.8272 19.1313 30.053C19.357 30.2788 19.4699 30.5771 19.4699 30.9481V37.48C20.0344 36.8026 20.7118 36.2704 21.5021 35.8833C22.3085 35.4801 23.1875 35.2785 24.139 35.2785C25.3164 35.2785 26.3728 35.5768 27.3082 36.1736C28.2436 36.7542 28.9775 37.5525 29.5097 38.5686C30.058 39.5685 30.3322 40.7056 30.3322 41.9797C30.3322 43.2538 30.0338 44.3989 29.4371 45.415C28.8565 46.4311 28.0662 47.2375 27.0663 47.8342C26.0663 48.4148 24.9293 48.7051 23.6552 48.7051ZM23.6552 46.5278C24.4777 46.5278 25.2115 46.3343 25.8567 45.9472C26.5018 45.544 27.0098 44.9957 27.3808 44.3021C27.7679 43.6086 27.9614 42.8345 27.9614 41.9797C27.9614 41.1088 27.7679 40.3346 27.3808 39.6573C27.0098 38.9799 26.5018 38.4476 25.8567 38.0606C25.2115 37.6574 24.4777 37.4558 23.6552 37.4558C22.8488 37.4558 22.115 37.6574 21.4537 38.0606C20.8086 38.4476 20.3005 38.9799 19.9296 39.6573C19.5587 40.3346 19.3732 41.1088 19.3732 41.9797C19.3732 42.8345 19.5587 43.6086 19.9296 44.3021C20.3005 44.9957 20.8086 45.544 21.4537 45.9472C22.115 46.3343 22.8488 46.5278 23.6552 46.5278Z" fill="#7F96FF"/>
<path d="M40.0121 48.7051C38.7057 48.7051 37.5526 48.4229 36.5526 47.8584C35.5527 47.2778 34.7624 46.4875 34.1818 45.4876C33.6173 44.4715 33.3351 43.3103 33.3351 42.0039C33.3351 40.6814 33.6173 39.5202 34.1818 38.5202C34.7624 37.5042 35.5527 36.7139 36.5526 36.1494C37.5526 35.5688 38.7057 35.2785 40.0121 35.2785C41.3023 35.2785 42.4474 35.5688 43.4474 36.1494C44.4473 36.7139 45.2295 37.5042 45.794 38.5202C46.3746 39.5202 46.6649 40.6814 46.6649 42.0039C46.6649 43.3103 46.3827 44.4715 45.8182 45.4876C45.2537 46.4875 44.4715 47.2778 43.4716 47.8584C42.4716 48.4229 41.3185 48.7051 40.0121 48.7051ZM40.0121 46.5278C40.8508 46.5278 41.5926 46.3343 42.2378 45.9472C42.8829 45.5601 43.3829 45.0279 43.7377 44.3505C44.1086 43.6731 44.2941 42.8909 44.2941 42.0039C44.2941 41.1168 44.1086 40.3346 43.7377 39.6573C43.3829 38.9637 42.8829 38.4235 42.2378 38.0364C41.5926 37.6493 40.8508 37.4558 40.0121 37.4558C39.1734 37.4558 38.4315 37.6493 37.7864 38.0364C37.1413 38.4235 36.6333 38.9637 36.2623 39.6573C35.8914 40.3346 35.7059 41.1168 35.7059 42.0039C35.7059 42.8909 35.8914 43.6731 36.2623 44.3505C36.6333 45.0279 37.1413 45.5601 37.7864 45.9472C38.4315 46.3343 39.1734 46.5278 40.0121 46.5278Z" fill="#7F96FF"/>
<path d="M56.3371 48.7051C55.0791 48.7051 53.942 48.4148 52.926 47.8342C51.926 47.2375 51.1277 46.4311 50.531 45.415C49.9503 44.3989 49.66 43.2538 49.66 41.9797C49.66 40.7056 49.9261 39.5685 50.4584 38.5686C51.0067 37.5525 51.7486 36.7542 52.684 36.1736C53.6195 35.5768 54.6759 35.2785 55.8532 35.2785C56.8048 35.2785 57.6838 35.4801 58.4902 35.8833C59.2966 36.2704 59.9739 36.8026 60.5223 37.48V30.9481C60.5223 30.5771 60.6352 30.2788 60.861 30.053C61.1029 29.8272 61.4013 29.7143 61.7561 29.7143C62.1271 29.7143 62.4254 29.8272 62.6512 30.053C62.877 30.2788 62.9899 30.5771 62.9899 30.9481V41.9797C62.9899 43.2538 62.6915 44.3989 62.0948 45.415C61.5142 46.4311 60.7239 47.2375 59.724 47.8342C58.724 48.4148 57.5951 48.7051 56.3371 48.7051ZM56.3371 46.5278C57.1596 46.5278 57.8934 46.3343 58.5385 45.9472C59.1837 45.544 59.6917 44.9957 60.0627 44.3021C60.4336 43.6086 60.6191 42.8345 60.6191 41.9797C60.6191 41.1088 60.4336 40.3346 60.0627 39.6573C59.6917 38.9799 59.1837 38.4476 58.5385 38.0606C57.8934 37.6574 57.1596 37.4558 56.3371 37.4558C55.5307 37.4558 54.7968 37.6574 54.1356 38.0606C53.4905 38.4476 52.9744 38.9799 52.5873 39.6573C52.2163 40.3346 52.0309 41.1088 52.0309 41.9797C52.0309 42.8345 52.2163 43.6086 52.5873 44.3021C52.9744 44.9957 53.4905 45.544 54.1356 45.9472C54.7968 46.3343 55.5307 46.5278 56.3371 46.5278Z" fill="#7F96FF"/>
<path d="M73.3472 48.7051C72.0408 48.7051 70.8876 48.4229 69.8877 47.8584C68.8877 47.2778 68.0975 46.4875 67.5169 45.4876C66.9524 44.4715 66.6701 43.3103 66.6701 42.0039C66.6701 40.6814 66.9524 39.5202 67.5169 38.5202C68.0975 37.5042 68.8877 36.7139 69.8877 36.1494C70.8876 35.5688 72.0408 35.2785 73.3472 35.2785C74.6374 35.2785 75.7825 35.5688 76.7824 36.1494C77.7824 36.7139 78.5646 37.5042 79.1291 38.5202C79.7097 39.5202 80 40.6814 80 42.0039C80 43.3103 79.7178 44.4715 79.1533 45.4876C78.5888 46.4875 77.8066 47.2778 76.8066 47.8584C75.8067 48.4229 74.6535 48.7051 73.3472 48.7051ZM73.3472 46.5278C74.1858 46.5278 74.9277 46.3343 75.5728 45.9472C76.218 45.5601 76.7179 45.0279 77.0727 44.3505C77.4437 43.6731 77.6292 42.8909 77.6292 42.0039C77.6292 41.1168 77.4437 40.3346 77.0727 39.6573C76.7179 38.9637 76.218 38.4235 75.5728 38.0364C74.9277 37.6493 74.1858 37.4558 73.3472 37.4558C72.5085 37.4558 71.7666 37.6493 71.1215 38.0364C70.4764 38.4235 69.9683 38.9637 69.5974 39.6573C69.2264 40.3346 69.041 41.1168 69.041 42.0039C69.041 42.8909 69.2264 43.6731 69.5974 44.3505C69.9683 45.0279 70.4764 45.5601 71.1215 45.9472C71.7666 46.3343 72.5085 46.5278 73.3472 46.5278Z" fill="#7F96FF"/>
</svg>
